G04 #@! TF.GenerationSoftware,KiCad,Pcbnew,7.0.2-6a45011f42~172~ubuntu22.04.1*
G04 #@! TF.CreationDate,2023-05-15T00:50:54+02:00*
G04 #@! TF.ProjectId,ESP32_mini_8Port_WLED,45535033-325f-46d6-996e-695f38506f72,rev?*
G04 #@! TF.SameCoordinates,Original*
G04 #@! TF.FileFunction,Legend,Bot*
G04 #@! TF.FilePolarity,Positive*
%FSLAX46Y46*%
G04 Gerber Fmt 4.6, Leading zero omitted, Abs format (unit mm)*
G04 Created by KiCad (PCBNEW 7.0.2-6a45011f42~172~ubuntu22.04.1) date 2023-05-15 00:50:54*
%MOMM*%
%LPD*%
G01*
G04 APERTURE LIST*
G04 Aperture macros list*
%AMRoundRect*
0 Rectangle with rounded corners*
0 $1 Rounding radius*
0 $2 $3 $4 $5 $6 $7 $8 $9 X,Y pos of 4 corners*
0 Add a 4 corners polygon primitive as box body*
4,1,4,$2,$3,$4,$5,$6,$7,$8,$9,$2,$3,0*
0 Add four circle primitives for the rounded corners*
1,1,$1+$1,$2,$3*
1,1,$1+$1,$4,$5*
1,1,$1+$1,$6,$7*
1,1,$1+$1,$8,$9*
0 Add four rect primitives between the rounded corners*
20,1,$1+$1,$2,$3,$4,$5,0*
20,1,$1+$1,$4,$5,$6,$7,0*
20,1,$1+$1,$6,$7,$8,$9,0*
20,1,$1+$1,$8,$9,$2,$3,0*%
G04 Aperture macros list end*
%ADD10C,0.187500*%
%ADD11C,0.300000*%
%ADD12R,1.600000X1.600000*%
%ADD13C,1.600000*%
%ADD14R,2.400000X2.400000*%
%ADD15C,2.400000*%
%ADD16R,1.500000X1.050000*%
%ADD17RoundRect,0.262500X0.487500X-0.262500X0.487500X0.262500X-0.487500X0.262500X-0.487500X-0.262500X0*%
%ADD18R,1.700000X1.700000*%
%ADD19O,1.700000X1.700000*%
%ADD20RoundRect,0.250200X-0.649800X-0.649800X0.649800X-0.649800X0.649800X0.649800X-0.649800X0.649800X0*%
%ADD21C,1.800000*%
%ADD22O,3.048000X1.850000*%
%ADD23O,1.600000X1.600000*%
%ADD24C,3.000000*%
%ADD25C,2.500000*%
%ADD26C,2.100000*%
%ADD27R,2.100000X2.100000*%
%ADD28R,2.200000X2.200000*%
%ADD29O,2.200000X2.200000*%
%ADD30C,1.400000*%
%ADD31C,0.800000*%
%ADD32C,7.000000*%
G04 APERTURE END LIST*
D10*
X80491071Y-125132859D02*
X81991071Y-125132859D01*
X80491071Y-124490002D02*
X81276785Y-124490002D01*
X81276785Y-124490002D02*
X81419642Y-124561430D01*
X81419642Y-124561430D02*
X81491071Y-124704287D01*
X81491071Y-124704287D02*
X81491071Y-124918573D01*
X81491071Y-124918573D02*
X81419642Y-125061430D01*
X81419642Y-125061430D02*
X81348214Y-125132859D01*
X81491071Y-123990001D02*
X81491071Y-123418573D01*
X81991071Y-123775716D02*
X80705357Y-123775716D01*
X80705357Y-123775716D02*
X80562500Y-123704287D01*
X80562500Y-123704287D02*
X80491071Y-123561430D01*
X80491071Y-123561430D02*
X80491071Y-123418573D01*
X81491071Y-123132858D02*
X81491071Y-122561430D01*
X81991071Y-122918573D02*
X80705357Y-122918573D01*
X80705357Y-122918573D02*
X80562500Y-122847144D01*
X80562500Y-122847144D02*
X80491071Y-122704287D01*
X80491071Y-122704287D02*
X80491071Y-122561430D01*
X81491071Y-122061430D02*
X79991071Y-122061430D01*
X81419642Y-122061430D02*
X81491071Y-121918573D01*
X81491071Y-121918573D02*
X81491071Y-121632858D01*
X81491071Y-121632858D02*
X81419642Y-121490001D01*
X81419642Y-121490001D02*
X81348214Y-121418573D01*
X81348214Y-121418573D02*
X81205357Y-121347144D01*
X81205357Y-121347144D02*
X80776785Y-121347144D01*
X80776785Y-121347144D02*
X80633928Y-121418573D01*
X80633928Y-121418573D02*
X80562500Y-121490001D01*
X80562500Y-121490001D02*
X80491071Y-121632858D01*
X80491071Y-121632858D02*
X80491071Y-121918573D01*
X80491071Y-121918573D02*
X80562500Y-122061430D01*
X80562500Y-120775715D02*
X80491071Y-120632858D01*
X80491071Y-120632858D02*
X80491071Y-120347144D01*
X80491071Y-120347144D02*
X80562500Y-120204287D01*
X80562500Y-120204287D02*
X80705357Y-120132858D01*
X80705357Y-120132858D02*
X80776785Y-120132858D01*
X80776785Y-120132858D02*
X80919642Y-120204287D01*
X80919642Y-120204287D02*
X80991071Y-120347144D01*
X80991071Y-120347144D02*
X80991071Y-120561430D01*
X80991071Y-120561430D02*
X81062500Y-120704287D01*
X81062500Y-120704287D02*
X81205357Y-120775715D01*
X81205357Y-120775715D02*
X81276785Y-120775715D01*
X81276785Y-120775715D02*
X81419642Y-120704287D01*
X81419642Y-120704287D02*
X81491071Y-120561430D01*
X81491071Y-120561430D02*
X81491071Y-120347144D01*
X81491071Y-120347144D02*
X81419642Y-120204287D01*
X80633928Y-119490001D02*
X80562500Y-119418572D01*
X80562500Y-119418572D02*
X80491071Y-119490001D01*
X80491071Y-119490001D02*
X80562500Y-119561429D01*
X80562500Y-119561429D02*
X80633928Y-119490001D01*
X80633928Y-119490001D02*
X80491071Y-119490001D01*
X81419642Y-119490001D02*
X81348214Y-119418572D01*
X81348214Y-119418572D02*
X81276785Y-119490001D01*
X81276785Y-119490001D02*
X81348214Y-119561429D01*
X81348214Y-119561429D02*
X81419642Y-119490001D01*
X81419642Y-119490001D02*
X81276785Y-119490001D01*
X82062500Y-117704286D02*
X80133928Y-118990000D01*
X82062500Y-116132857D02*
X80133928Y-117418571D01*
X81491071Y-114990000D02*
X80276785Y-114990000D01*
X80276785Y-114990000D02*
X80133928Y-115061428D01*
X80133928Y-115061428D02*
X80062500Y-115132857D01*
X80062500Y-115132857D02*
X79991071Y-115275714D01*
X79991071Y-115275714D02*
X79991071Y-115490000D01*
X79991071Y-115490000D02*
X80062500Y-115632857D01*
X80562500Y-114990000D02*
X80491071Y-115132857D01*
X80491071Y-115132857D02*
X80491071Y-115418571D01*
X80491071Y-115418571D02*
X80562500Y-115561428D01*
X80562500Y-115561428D02*
X80633928Y-115632857D01*
X80633928Y-115632857D02*
X80776785Y-115704285D01*
X80776785Y-115704285D02*
X81205357Y-115704285D01*
X81205357Y-115704285D02*
X81348214Y-115632857D01*
X81348214Y-115632857D02*
X81419642Y-115561428D01*
X81419642Y-115561428D02*
X81491071Y-115418571D01*
X81491071Y-115418571D02*
X81491071Y-115132857D01*
X81491071Y-115132857D02*
X81419642Y-114990000D01*
X80491071Y-114275714D02*
X81491071Y-114275714D01*
X81991071Y-114275714D02*
X81919642Y-114347142D01*
X81919642Y-114347142D02*
X81848214Y-114275714D01*
X81848214Y-114275714D02*
X81919642Y-114204285D01*
X81919642Y-114204285D02*
X81991071Y-114275714D01*
X81991071Y-114275714D02*
X81848214Y-114275714D01*
X81491071Y-113775713D02*
X81491071Y-113204285D01*
X81991071Y-113561428D02*
X80705357Y-113561428D01*
X80705357Y-113561428D02*
X80562500Y-113489999D01*
X80562500Y-113489999D02*
X80491071Y-113347142D01*
X80491071Y-113347142D02*
X80491071Y-113204285D01*
X80491071Y-112704285D02*
X81991071Y-112704285D01*
X80491071Y-112061428D02*
X81276785Y-112061428D01*
X81276785Y-112061428D02*
X81419642Y-112132856D01*
X81419642Y-112132856D02*
X81491071Y-112275713D01*
X81491071Y-112275713D02*
X81491071Y-112489999D01*
X81491071Y-112489999D02*
X81419642Y-112632856D01*
X81419642Y-112632856D02*
X81348214Y-112704285D01*
X81491071Y-110704285D02*
X80491071Y-110704285D01*
X81491071Y-111347142D02*
X80705357Y-111347142D01*
X80705357Y-111347142D02*
X80562500Y-111275713D01*
X80562500Y-111275713D02*
X80491071Y-111132856D01*
X80491071Y-111132856D02*
X80491071Y-110918570D01*
X80491071Y-110918570D02*
X80562500Y-110775713D01*
X80562500Y-110775713D02*
X80633928Y-110704285D01*
X80491071Y-109989999D02*
X81991071Y-109989999D01*
X81419642Y-109989999D02*
X81491071Y-109847142D01*
X81491071Y-109847142D02*
X81491071Y-109561427D01*
X81491071Y-109561427D02*
X81419642Y-109418570D01*
X81419642Y-109418570D02*
X81348214Y-109347142D01*
X81348214Y-109347142D02*
X81205357Y-109275713D01*
X81205357Y-109275713D02*
X80776785Y-109275713D01*
X80776785Y-109275713D02*
X80633928Y-109347142D01*
X80633928Y-109347142D02*
X80562500Y-109418570D01*
X80562500Y-109418570D02*
X80491071Y-109561427D01*
X80491071Y-109561427D02*
X80491071Y-109847142D01*
X80491071Y-109847142D02*
X80562500Y-109989999D01*
X80633928Y-108632856D02*
X80562500Y-108561427D01*
X80562500Y-108561427D02*
X80491071Y-108632856D01*
X80491071Y-108632856D02*
X80562500Y-108704284D01*
X80562500Y-108704284D02*
X80633928Y-108632856D01*
X80633928Y-108632856D02*
X80491071Y-108632856D01*
X80562500Y-107275713D02*
X80491071Y-107418570D01*
X80491071Y-107418570D02*
X80491071Y-107704284D01*
X80491071Y-107704284D02*
X80562500Y-107847141D01*
X80562500Y-107847141D02*
X80633928Y-107918570D01*
X80633928Y-107918570D02*
X80776785Y-107989998D01*
X80776785Y-107989998D02*
X81205357Y-107989998D01*
X81205357Y-107989998D02*
X81348214Y-107918570D01*
X81348214Y-107918570D02*
X81419642Y-107847141D01*
X81419642Y-107847141D02*
X81491071Y-107704284D01*
X81491071Y-107704284D02*
X81491071Y-107418570D01*
X81491071Y-107418570D02*
X81419642Y-107275713D01*
X80491071Y-106418570D02*
X80562500Y-106561427D01*
X80562500Y-106561427D02*
X80633928Y-106632856D01*
X80633928Y-106632856D02*
X80776785Y-106704284D01*
X80776785Y-106704284D02*
X81205357Y-106704284D01*
X81205357Y-106704284D02*
X81348214Y-106632856D01*
X81348214Y-106632856D02*
X81419642Y-106561427D01*
X81419642Y-106561427D02*
X81491071Y-106418570D01*
X81491071Y-106418570D02*
X81491071Y-106204284D01*
X81491071Y-106204284D02*
X81419642Y-106061427D01*
X81419642Y-106061427D02*
X81348214Y-105989999D01*
X81348214Y-105989999D02*
X81205357Y-105918570D01*
X81205357Y-105918570D02*
X80776785Y-105918570D01*
X80776785Y-105918570D02*
X80633928Y-105989999D01*
X80633928Y-105989999D02*
X80562500Y-106061427D01*
X80562500Y-106061427D02*
X80491071Y-106204284D01*
X80491071Y-106204284D02*
X80491071Y-106418570D01*
X80491071Y-105275713D02*
X81491071Y-105275713D01*
X81348214Y-105275713D02*
X81419642Y-105204284D01*
X81419642Y-105204284D02*
X81491071Y-105061427D01*
X81491071Y-105061427D02*
X81491071Y-104847141D01*
X81491071Y-104847141D02*
X81419642Y-104704284D01*
X81419642Y-104704284D02*
X81276785Y-104632856D01*
X81276785Y-104632856D02*
X80491071Y-104632856D01*
X81276785Y-104632856D02*
X81419642Y-104561427D01*
X81419642Y-104561427D02*
X81491071Y-104418570D01*
X81491071Y-104418570D02*
X81491071Y-104204284D01*
X81491071Y-104204284D02*
X81419642Y-104061427D01*
X81419642Y-104061427D02*
X81276785Y-103989998D01*
X81276785Y-103989998D02*
X80491071Y-103989998D01*
X82062500Y-102204284D02*
X80133928Y-103489998D01*
X81491071Y-101847141D02*
X80491071Y-101561427D01*
X80491071Y-101561427D02*
X81205357Y-101275712D01*
X81205357Y-101275712D02*
X80491071Y-100989998D01*
X80491071Y-100989998D02*
X81491071Y-100704284D01*
X81491071Y-99489998D02*
X80491071Y-99489998D01*
X82062500Y-99847140D02*
X80991071Y-100204283D01*
X80991071Y-100204283D02*
X80991071Y-99275712D01*
X80491071Y-98704284D02*
X81991071Y-98704284D01*
X81419642Y-98704284D02*
X81491071Y-98561427D01*
X81491071Y-98561427D02*
X81491071Y-98275712D01*
X81491071Y-98275712D02*
X81419642Y-98132855D01*
X81419642Y-98132855D02*
X81348214Y-98061427D01*
X81348214Y-98061427D02*
X81205357Y-97989998D01*
X81205357Y-97989998D02*
X80776785Y-97989998D01*
X80776785Y-97989998D02*
X80633928Y-98061427D01*
X80633928Y-98061427D02*
X80562500Y-98132855D01*
X80562500Y-98132855D02*
X80491071Y-98275712D01*
X80491071Y-98275712D02*
X80491071Y-98561427D01*
X80491071Y-98561427D02*
X80562500Y-98704284D01*
X81062500Y-97347141D02*
X81062500Y-96204284D01*
X81491071Y-95632855D02*
X81491071Y-94847141D01*
X81491071Y-94847141D02*
X80491071Y-95632855D01*
X80491071Y-95632855D02*
X80491071Y-94847141D01*
X80562500Y-93704283D02*
X80491071Y-93847140D01*
X80491071Y-93847140D02*
X80491071Y-94132855D01*
X80491071Y-94132855D02*
X80562500Y-94275712D01*
X80562500Y-94275712D02*
X80705357Y-94347140D01*
X80705357Y-94347140D02*
X81276785Y-94347140D01*
X81276785Y-94347140D02*
X81419642Y-94275712D01*
X81419642Y-94275712D02*
X81491071Y-94132855D01*
X81491071Y-94132855D02*
X81491071Y-93847140D01*
X81491071Y-93847140D02*
X81419642Y-93704283D01*
X81419642Y-93704283D02*
X81276785Y-93632855D01*
X81276785Y-93632855D02*
X81133928Y-93632855D01*
X81133928Y-93632855D02*
X80991071Y-94347140D01*
X80491071Y-92989998D02*
X81491071Y-92989998D01*
X81205357Y-92989998D02*
X81348214Y-92918569D01*
X81348214Y-92918569D02*
X81419642Y-92847141D01*
X81419642Y-92847141D02*
X81491071Y-92704283D01*
X81491071Y-92704283D02*
X81491071Y-92561426D01*
X80491071Y-91847141D02*
X80562500Y-91989998D01*
X80562500Y-91989998D02*
X80633928Y-92061427D01*
X80633928Y-92061427D02*
X80776785Y-92132855D01*
X80776785Y-92132855D02*
X81205357Y-92132855D01*
X81205357Y-92132855D02*
X81348214Y-92061427D01*
X81348214Y-92061427D02*
X81419642Y-91989998D01*
X81419642Y-91989998D02*
X81491071Y-91847141D01*
X81491071Y-91847141D02*
X81491071Y-91632855D01*
X81491071Y-91632855D02*
X81419642Y-91489998D01*
X81419642Y-91489998D02*
X81348214Y-91418570D01*
X81348214Y-91418570D02*
X81205357Y-91347141D01*
X81205357Y-91347141D02*
X80776785Y-91347141D01*
X80776785Y-91347141D02*
X80633928Y-91418570D01*
X80633928Y-91418570D02*
X80562500Y-91489998D01*
X80562500Y-91489998D02*
X80491071Y-91632855D01*
X80491071Y-91632855D02*
X80491071Y-91847141D01*
X82062500Y-89632855D02*
X80133928Y-90918569D01*
X78846785Y-120739999D02*
X78846785Y-120239999D01*
X78061071Y-120025713D02*
X78061071Y-120739999D01*
X78061071Y-120739999D02*
X79561071Y-120739999D01*
X79561071Y-120739999D02*
X79561071Y-120025713D01*
X78132500Y-119454284D02*
X78061071Y-119239999D01*
X78061071Y-119239999D02*
X78061071Y-118882856D01*
X78061071Y-118882856D02*
X78132500Y-118739999D01*
X78132500Y-118739999D02*
X78203928Y-118668570D01*
X78203928Y-118668570D02*
X78346785Y-118597141D01*
X78346785Y-118597141D02*
X78489642Y-118597141D01*
X78489642Y-118597141D02*
X78632500Y-118668570D01*
X78632500Y-118668570D02*
X78703928Y-118739999D01*
X78703928Y-118739999D02*
X78775357Y-118882856D01*
X78775357Y-118882856D02*
X78846785Y-119168570D01*
X78846785Y-119168570D02*
X78918214Y-119311427D01*
X78918214Y-119311427D02*
X78989642Y-119382856D01*
X78989642Y-119382856D02*
X79132500Y-119454284D01*
X79132500Y-119454284D02*
X79275357Y-119454284D01*
X79275357Y-119454284D02*
X79418214Y-119382856D01*
X79418214Y-119382856D02*
X79489642Y-119311427D01*
X79489642Y-119311427D02*
X79561071Y-119168570D01*
X79561071Y-119168570D02*
X79561071Y-118811427D01*
X79561071Y-118811427D02*
X79489642Y-118597141D01*
X78061071Y-117954285D02*
X79561071Y-117954285D01*
X79561071Y-117954285D02*
X79561071Y-117382856D01*
X79561071Y-117382856D02*
X79489642Y-117239999D01*
X79489642Y-117239999D02*
X79418214Y-117168570D01*
X79418214Y-117168570D02*
X79275357Y-117097142D01*
X79275357Y-117097142D02*
X79061071Y-117097142D01*
X79061071Y-117097142D02*
X78918214Y-117168570D01*
X78918214Y-117168570D02*
X78846785Y-117239999D01*
X78846785Y-117239999D02*
X78775357Y-117382856D01*
X78775357Y-117382856D02*
X78775357Y-117954285D01*
X79561071Y-116597142D02*
X79561071Y-115668570D01*
X79561071Y-115668570D02*
X78989642Y-116168570D01*
X78989642Y-116168570D02*
X78989642Y-115954285D01*
X78989642Y-115954285D02*
X78918214Y-115811428D01*
X78918214Y-115811428D02*
X78846785Y-115739999D01*
X78846785Y-115739999D02*
X78703928Y-115668570D01*
X78703928Y-115668570D02*
X78346785Y-115668570D01*
X78346785Y-115668570D02*
X78203928Y-115739999D01*
X78203928Y-115739999D02*
X78132500Y-115811428D01*
X78132500Y-115811428D02*
X78061071Y-115954285D01*
X78061071Y-115954285D02*
X78061071Y-116382856D01*
X78061071Y-116382856D02*
X78132500Y-116525713D01*
X78132500Y-116525713D02*
X78203928Y-116597142D01*
X79418214Y-115097142D02*
X79489642Y-115025714D01*
X79489642Y-115025714D02*
X79561071Y-114882857D01*
X79561071Y-114882857D02*
X79561071Y-114525714D01*
X79561071Y-114525714D02*
X79489642Y-114382857D01*
X79489642Y-114382857D02*
X79418214Y-114311428D01*
X79418214Y-114311428D02*
X79275357Y-114239999D01*
X79275357Y-114239999D02*
X79132500Y-114239999D01*
X79132500Y-114239999D02*
X78918214Y-114311428D01*
X78918214Y-114311428D02*
X78061071Y-115168571D01*
X78061071Y-115168571D02*
X78061071Y-114239999D01*
X77918214Y-113954286D02*
X77918214Y-112811428D01*
X78061071Y-112454286D02*
X79061071Y-112454286D01*
X78918214Y-112454286D02*
X78989642Y-112382857D01*
X78989642Y-112382857D02*
X79061071Y-112240000D01*
X79061071Y-112240000D02*
X79061071Y-112025714D01*
X79061071Y-112025714D02*
X78989642Y-111882857D01*
X78989642Y-111882857D02*
X78846785Y-111811429D01*
X78846785Y-111811429D02*
X78061071Y-111811429D01*
X78846785Y-111811429D02*
X78989642Y-111740000D01*
X78989642Y-111740000D02*
X79061071Y-111597143D01*
X79061071Y-111597143D02*
X79061071Y-111382857D01*
X79061071Y-111382857D02*
X78989642Y-111240000D01*
X78989642Y-111240000D02*
X78846785Y-111168571D01*
X78846785Y-111168571D02*
X78061071Y-111168571D01*
X78061071Y-110454286D02*
X79061071Y-110454286D01*
X79561071Y-110454286D02*
X79489642Y-110525714D01*
X79489642Y-110525714D02*
X79418214Y-110454286D01*
X79418214Y-110454286D02*
X79489642Y-110382857D01*
X79489642Y-110382857D02*
X79561071Y-110454286D01*
X79561071Y-110454286D02*
X79418214Y-110454286D01*
X79061071Y-109740000D02*
X78061071Y-109740000D01*
X78918214Y-109740000D02*
X78989642Y-109668571D01*
X78989642Y-109668571D02*
X79061071Y-109525714D01*
X79061071Y-109525714D02*
X79061071Y-109311428D01*
X79061071Y-109311428D02*
X78989642Y-109168571D01*
X78989642Y-109168571D02*
X78846785Y-109097143D01*
X78846785Y-109097143D02*
X78061071Y-109097143D01*
X78061071Y-108382857D02*
X79061071Y-108382857D01*
X79561071Y-108382857D02*
X79489642Y-108454285D01*
X79489642Y-108454285D02*
X79418214Y-108382857D01*
X79418214Y-108382857D02*
X79489642Y-108311428D01*
X79489642Y-108311428D02*
X79561071Y-108382857D01*
X79561071Y-108382857D02*
X79418214Y-108382857D01*
X77918214Y-108025714D02*
X77918214Y-106882856D01*
X78918214Y-106311428D02*
X78989642Y-106454285D01*
X78989642Y-106454285D02*
X79061071Y-106525714D01*
X79061071Y-106525714D02*
X79203928Y-106597142D01*
X79203928Y-106597142D02*
X79275357Y-106597142D01*
X79275357Y-106597142D02*
X79418214Y-106525714D01*
X79418214Y-106525714D02*
X79489642Y-106454285D01*
X79489642Y-106454285D02*
X79561071Y-106311428D01*
X79561071Y-106311428D02*
X79561071Y-106025714D01*
X79561071Y-106025714D02*
X79489642Y-105882857D01*
X79489642Y-105882857D02*
X79418214Y-105811428D01*
X79418214Y-105811428D02*
X79275357Y-105739999D01*
X79275357Y-105739999D02*
X79203928Y-105739999D01*
X79203928Y-105739999D02*
X79061071Y-105811428D01*
X79061071Y-105811428D02*
X78989642Y-105882857D01*
X78989642Y-105882857D02*
X78918214Y-106025714D01*
X78918214Y-106025714D02*
X78918214Y-106311428D01*
X78918214Y-106311428D02*
X78846785Y-106454285D01*
X78846785Y-106454285D02*
X78775357Y-106525714D01*
X78775357Y-106525714D02*
X78632500Y-106597142D01*
X78632500Y-106597142D02*
X78346785Y-106597142D01*
X78346785Y-106597142D02*
X78203928Y-106525714D01*
X78203928Y-106525714D02*
X78132500Y-106454285D01*
X78132500Y-106454285D02*
X78061071Y-106311428D01*
X78061071Y-106311428D02*
X78061071Y-106025714D01*
X78061071Y-106025714D02*
X78132500Y-105882857D01*
X78132500Y-105882857D02*
X78203928Y-105811428D01*
X78203928Y-105811428D02*
X78346785Y-105739999D01*
X78346785Y-105739999D02*
X78632500Y-105739999D01*
X78632500Y-105739999D02*
X78775357Y-105811428D01*
X78775357Y-105811428D02*
X78846785Y-105882857D01*
X78846785Y-105882857D02*
X78918214Y-106025714D01*
X78061071Y-105097143D02*
X79561071Y-105097143D01*
X79561071Y-105097143D02*
X79561071Y-104525714D01*
X79561071Y-104525714D02*
X79489642Y-104382857D01*
X79489642Y-104382857D02*
X79418214Y-104311428D01*
X79418214Y-104311428D02*
X79275357Y-104240000D01*
X79275357Y-104240000D02*
X79061071Y-104240000D01*
X79061071Y-104240000D02*
X78918214Y-104311428D01*
X78918214Y-104311428D02*
X78846785Y-104382857D01*
X78846785Y-104382857D02*
X78775357Y-104525714D01*
X78775357Y-104525714D02*
X78775357Y-105097143D01*
X78061071Y-103382857D02*
X78132500Y-103525714D01*
X78132500Y-103525714D02*
X78203928Y-103597143D01*
X78203928Y-103597143D02*
X78346785Y-103668571D01*
X78346785Y-103668571D02*
X78775357Y-103668571D01*
X78775357Y-103668571D02*
X78918214Y-103597143D01*
X78918214Y-103597143D02*
X78989642Y-103525714D01*
X78989642Y-103525714D02*
X79061071Y-103382857D01*
X79061071Y-103382857D02*
X79061071Y-103168571D01*
X79061071Y-103168571D02*
X78989642Y-103025714D01*
X78989642Y-103025714D02*
X78918214Y-102954286D01*
X78918214Y-102954286D02*
X78775357Y-102882857D01*
X78775357Y-102882857D02*
X78346785Y-102882857D01*
X78346785Y-102882857D02*
X78203928Y-102954286D01*
X78203928Y-102954286D02*
X78132500Y-103025714D01*
X78132500Y-103025714D02*
X78061071Y-103168571D01*
X78061071Y-103168571D02*
X78061071Y-103382857D01*
X78061071Y-102240000D02*
X79061071Y-102240000D01*
X78775357Y-102240000D02*
X78918214Y-102168571D01*
X78918214Y-102168571D02*
X78989642Y-102097143D01*
X78989642Y-102097143D02*
X79061071Y-101954285D01*
X79061071Y-101954285D02*
X79061071Y-101811428D01*
X79061071Y-101525714D02*
X79061071Y-100954286D01*
X79561071Y-101311429D02*
X78275357Y-101311429D01*
X78275357Y-101311429D02*
X78132500Y-101240000D01*
X78132500Y-101240000D02*
X78061071Y-101097143D01*
X78061071Y-101097143D02*
X78061071Y-100954286D01*
X77918214Y-100811429D02*
X77918214Y-99668571D01*
X79561071Y-99454286D02*
X78061071Y-99097143D01*
X78061071Y-99097143D02*
X79132500Y-98811429D01*
X79132500Y-98811429D02*
X78061071Y-98525714D01*
X78061071Y-98525714D02*
X79561071Y-98168572D01*
X78061071Y-96882857D02*
X78061071Y-97597143D01*
X78061071Y-97597143D02*
X79561071Y-97597143D01*
X78846785Y-96382857D02*
X78846785Y-95882857D01*
X78061071Y-95668571D02*
X78061071Y-96382857D01*
X78061071Y-96382857D02*
X79561071Y-96382857D01*
X79561071Y-96382857D02*
X79561071Y-95668571D01*
X78061071Y-95025714D02*
X79561071Y-95025714D01*
X79561071Y-95025714D02*
X79561071Y-94668571D01*
X79561071Y-94668571D02*
X79489642Y-94454285D01*
X79489642Y-94454285D02*
X79346785Y-94311428D01*
X79346785Y-94311428D02*
X79203928Y-94239999D01*
X79203928Y-94239999D02*
X78918214Y-94168571D01*
X78918214Y-94168571D02*
X78703928Y-94168571D01*
X78703928Y-94168571D02*
X78418214Y-94239999D01*
X78418214Y-94239999D02*
X78275357Y-94311428D01*
X78275357Y-94311428D02*
X78132500Y-94454285D01*
X78132500Y-94454285D02*
X78061071Y-94668571D01*
X78061071Y-94668571D02*
X78061071Y-95025714D01*
D11*
X200590714Y-91687142D02*
X200590714Y-92187142D01*
X201376428Y-92401428D02*
X201376428Y-91687142D01*
X201376428Y-91687142D02*
X199876428Y-91687142D01*
X199876428Y-91687142D02*
X199876428Y-92401428D01*
X201305000Y-92972857D02*
X201376428Y-93187143D01*
X201376428Y-93187143D02*
X201376428Y-93544285D01*
X201376428Y-93544285D02*
X201305000Y-93687143D01*
X201305000Y-93687143D02*
X201233571Y-93758571D01*
X201233571Y-93758571D02*
X201090714Y-93830000D01*
X201090714Y-93830000D02*
X200947857Y-93830000D01*
X200947857Y-93830000D02*
X200805000Y-93758571D01*
X200805000Y-93758571D02*
X200733571Y-93687143D01*
X200733571Y-93687143D02*
X200662142Y-93544285D01*
X200662142Y-93544285D02*
X200590714Y-93258571D01*
X200590714Y-93258571D02*
X200519285Y-93115714D01*
X200519285Y-93115714D02*
X200447857Y-93044285D01*
X200447857Y-93044285D02*
X200305000Y-92972857D01*
X200305000Y-92972857D02*
X200162142Y-92972857D01*
X200162142Y-92972857D02*
X200019285Y-93044285D01*
X200019285Y-93044285D02*
X199947857Y-93115714D01*
X199947857Y-93115714D02*
X199876428Y-93258571D01*
X199876428Y-93258571D02*
X199876428Y-93615714D01*
X199876428Y-93615714D02*
X199947857Y-93830000D01*
X201376428Y-94472856D02*
X199876428Y-94472856D01*
X199876428Y-94472856D02*
X199876428Y-95044285D01*
X199876428Y-95044285D02*
X199947857Y-95187142D01*
X199947857Y-95187142D02*
X200019285Y-95258571D01*
X200019285Y-95258571D02*
X200162142Y-95329999D01*
X200162142Y-95329999D02*
X200376428Y-95329999D01*
X200376428Y-95329999D02*
X200519285Y-95258571D01*
X200519285Y-95258571D02*
X200590714Y-95187142D01*
X200590714Y-95187142D02*
X200662142Y-95044285D01*
X200662142Y-95044285D02*
X200662142Y-94472856D01*
X199876428Y-95829999D02*
X199876428Y-96758571D01*
X199876428Y-96758571D02*
X200447857Y-96258571D01*
X200447857Y-96258571D02*
X200447857Y-96472856D01*
X200447857Y-96472856D02*
X200519285Y-96615714D01*
X200519285Y-96615714D02*
X200590714Y-96687142D01*
X200590714Y-96687142D02*
X200733571Y-96758571D01*
X200733571Y-96758571D02*
X201090714Y-96758571D01*
X201090714Y-96758571D02*
X201233571Y-96687142D01*
X201233571Y-96687142D02*
X201305000Y-96615714D01*
X201305000Y-96615714D02*
X201376428Y-96472856D01*
X201376428Y-96472856D02*
X201376428Y-96044285D01*
X201376428Y-96044285D02*
X201305000Y-95901428D01*
X201305000Y-95901428D02*
X201233571Y-95829999D01*
X200019285Y-97329999D02*
X199947857Y-97401427D01*
X199947857Y-97401427D02*
X199876428Y-97544285D01*
X199876428Y-97544285D02*
X199876428Y-97901427D01*
X199876428Y-97901427D02*
X199947857Y-98044285D01*
X199947857Y-98044285D02*
X200019285Y-98115713D01*
X200019285Y-98115713D02*
X200162142Y-98187142D01*
X200162142Y-98187142D02*
X200305000Y-98187142D01*
X200305000Y-98187142D02*
X200519285Y-98115713D01*
X200519285Y-98115713D02*
X201376428Y-97258570D01*
X201376428Y-97258570D02*
X201376428Y-98187142D01*
X201376428Y-99972855D02*
X200376428Y-99972855D01*
X200519285Y-99972855D02*
X200447857Y-100044284D01*
X200447857Y-100044284D02*
X200376428Y-100187141D01*
X200376428Y-100187141D02*
X200376428Y-100401427D01*
X200376428Y-100401427D02*
X200447857Y-100544284D01*
X200447857Y-100544284D02*
X200590714Y-100615713D01*
X200590714Y-100615713D02*
X201376428Y-100615713D01*
X200590714Y-100615713D02*
X200447857Y-100687141D01*
X200447857Y-100687141D02*
X200376428Y-100829998D01*
X200376428Y-100829998D02*
X200376428Y-101044284D01*
X200376428Y-101044284D02*
X200447857Y-101187141D01*
X200447857Y-101187141D02*
X200590714Y-101258570D01*
X200590714Y-101258570D02*
X201376428Y-101258570D01*
X201376428Y-101972855D02*
X200376428Y-101972855D01*
X199876428Y-101972855D02*
X199947857Y-101901427D01*
X199947857Y-101901427D02*
X200019285Y-101972855D01*
X200019285Y-101972855D02*
X199947857Y-102044284D01*
X199947857Y-102044284D02*
X199876428Y-101972855D01*
X199876428Y-101972855D02*
X200019285Y-101972855D01*
X200376428Y-102687141D02*
X201376428Y-102687141D01*
X200519285Y-102687141D02*
X200447857Y-102758570D01*
X200447857Y-102758570D02*
X200376428Y-102901427D01*
X200376428Y-102901427D02*
X200376428Y-103115713D01*
X200376428Y-103115713D02*
X200447857Y-103258570D01*
X200447857Y-103258570D02*
X200590714Y-103329999D01*
X200590714Y-103329999D02*
X201376428Y-103329999D01*
X201376428Y-104044284D02*
X200376428Y-104044284D01*
X199876428Y-104044284D02*
X199947857Y-103972856D01*
X199947857Y-103972856D02*
X200019285Y-104044284D01*
X200019285Y-104044284D02*
X199947857Y-104115713D01*
X199947857Y-104115713D02*
X199876428Y-104044284D01*
X199876428Y-104044284D02*
X200019285Y-104044284D01*
X200519285Y-106115713D02*
X200447857Y-105972856D01*
X200447857Y-105972856D02*
X200376428Y-105901427D01*
X200376428Y-105901427D02*
X200233571Y-105829999D01*
X200233571Y-105829999D02*
X200162142Y-105829999D01*
X200162142Y-105829999D02*
X200019285Y-105901427D01*
X200019285Y-105901427D02*
X199947857Y-105972856D01*
X199947857Y-105972856D02*
X199876428Y-106115713D01*
X199876428Y-106115713D02*
X199876428Y-106401427D01*
X199876428Y-106401427D02*
X199947857Y-106544285D01*
X199947857Y-106544285D02*
X200019285Y-106615713D01*
X200019285Y-106615713D02*
X200162142Y-106687142D01*
X200162142Y-106687142D02*
X200233571Y-106687142D01*
X200233571Y-106687142D02*
X200376428Y-106615713D01*
X200376428Y-106615713D02*
X200447857Y-106544285D01*
X200447857Y-106544285D02*
X200519285Y-106401427D01*
X200519285Y-106401427D02*
X200519285Y-106115713D01*
X200519285Y-106115713D02*
X200590714Y-105972856D01*
X200590714Y-105972856D02*
X200662142Y-105901427D01*
X200662142Y-105901427D02*
X200805000Y-105829999D01*
X200805000Y-105829999D02*
X201090714Y-105829999D01*
X201090714Y-105829999D02*
X201233571Y-105901427D01*
X201233571Y-105901427D02*
X201305000Y-105972856D01*
X201305000Y-105972856D02*
X201376428Y-106115713D01*
X201376428Y-106115713D02*
X201376428Y-106401427D01*
X201376428Y-106401427D02*
X201305000Y-106544285D01*
X201305000Y-106544285D02*
X201233571Y-106615713D01*
X201233571Y-106615713D02*
X201090714Y-106687142D01*
X201090714Y-106687142D02*
X200805000Y-106687142D01*
X200805000Y-106687142D02*
X200662142Y-106615713D01*
X200662142Y-106615713D02*
X200590714Y-106544285D01*
X200590714Y-106544285D02*
X200519285Y-106401427D01*
X201376428Y-107329998D02*
X199876428Y-107329998D01*
X199876428Y-107329998D02*
X199876428Y-107901427D01*
X199876428Y-107901427D02*
X199947857Y-108044284D01*
X199947857Y-108044284D02*
X200019285Y-108115713D01*
X200019285Y-108115713D02*
X200162142Y-108187141D01*
X200162142Y-108187141D02*
X200376428Y-108187141D01*
X200376428Y-108187141D02*
X200519285Y-108115713D01*
X200519285Y-108115713D02*
X200590714Y-108044284D01*
X200590714Y-108044284D02*
X200662142Y-107901427D01*
X200662142Y-107901427D02*
X200662142Y-107329998D01*
X201376428Y-109044284D02*
X201305000Y-108901427D01*
X201305000Y-108901427D02*
X201233571Y-108829998D01*
X201233571Y-108829998D02*
X201090714Y-108758570D01*
X201090714Y-108758570D02*
X200662142Y-108758570D01*
X200662142Y-108758570D02*
X200519285Y-108829998D01*
X200519285Y-108829998D02*
X200447857Y-108901427D01*
X200447857Y-108901427D02*
X200376428Y-109044284D01*
X200376428Y-109044284D02*
X200376428Y-109258570D01*
X200376428Y-109258570D02*
X200447857Y-109401427D01*
X200447857Y-109401427D02*
X200519285Y-109472856D01*
X200519285Y-109472856D02*
X200662142Y-109544284D01*
X200662142Y-109544284D02*
X201090714Y-109544284D01*
X201090714Y-109544284D02*
X201233571Y-109472856D01*
X201233571Y-109472856D02*
X201305000Y-109401427D01*
X201305000Y-109401427D02*
X201376428Y-109258570D01*
X201376428Y-109258570D02*
X201376428Y-109044284D01*
X201376428Y-110187141D02*
X200376428Y-110187141D01*
X200662142Y-110187141D02*
X200519285Y-110258570D01*
X200519285Y-110258570D02*
X200447857Y-110329999D01*
X200447857Y-110329999D02*
X200376428Y-110472856D01*
X200376428Y-110472856D02*
X200376428Y-110615713D01*
X200376428Y-110901427D02*
X200376428Y-111472855D01*
X199876428Y-111115712D02*
X201162142Y-111115712D01*
X201162142Y-111115712D02*
X201305000Y-111187141D01*
X201305000Y-111187141D02*
X201376428Y-111329998D01*
X201376428Y-111329998D02*
X201376428Y-111472855D01*
X199876428Y-112972855D02*
X201376428Y-113329998D01*
X201376428Y-113329998D02*
X200305000Y-113615712D01*
X200305000Y-113615712D02*
X201376428Y-113901427D01*
X201376428Y-113901427D02*
X199876428Y-114258570D01*
X201376428Y-115544284D02*
X201376428Y-114829998D01*
X201376428Y-114829998D02*
X199876428Y-114829998D01*
X200590714Y-116044284D02*
X200590714Y-116544284D01*
X201376428Y-116758570D02*
X201376428Y-116044284D01*
X201376428Y-116044284D02*
X199876428Y-116044284D01*
X199876428Y-116044284D02*
X199876428Y-116758570D01*
X201376428Y-117401427D02*
X199876428Y-117401427D01*
X199876428Y-117401427D02*
X199876428Y-117758570D01*
X199876428Y-117758570D02*
X199947857Y-117972856D01*
X199947857Y-117972856D02*
X200090714Y-118115713D01*
X200090714Y-118115713D02*
X200233571Y-118187142D01*
X200233571Y-118187142D02*
X200519285Y-118258570D01*
X200519285Y-118258570D02*
X200733571Y-118258570D01*
X200733571Y-118258570D02*
X201019285Y-118187142D01*
X201019285Y-118187142D02*
X201162142Y-118115713D01*
X201162142Y-118115713D02*
X201305000Y-117972856D01*
X201305000Y-117972856D02*
X201376428Y-117758570D01*
X201376428Y-117758570D02*
X201376428Y-117401427D01*
X200376428Y-119901427D02*
X201376428Y-120258570D01*
X201376428Y-120258570D02*
X200376428Y-120615713D01*
X201376428Y-121972856D02*
X201376428Y-121115713D01*
X201376428Y-121544284D02*
X199876428Y-121544284D01*
X199876428Y-121544284D02*
X200090714Y-121401427D01*
X200090714Y-121401427D02*
X200233571Y-121258570D01*
X200233571Y-121258570D02*
X200305000Y-121115713D01*
X201233571Y-122615712D02*
X201305000Y-122687141D01*
X201305000Y-122687141D02*
X201376428Y-122615712D01*
X201376428Y-122615712D02*
X201305000Y-122544284D01*
X201305000Y-122544284D02*
X201233571Y-122615712D01*
X201233571Y-122615712D02*
X201376428Y-122615712D01*
X199876428Y-123615713D02*
X199876428Y-123758570D01*
X199876428Y-123758570D02*
X199947857Y-123901427D01*
X199947857Y-123901427D02*
X200019285Y-123972856D01*
X200019285Y-123972856D02*
X200162142Y-124044284D01*
X200162142Y-124044284D02*
X200447857Y-124115713D01*
X200447857Y-124115713D02*
X200805000Y-124115713D01*
X200805000Y-124115713D02*
X201090714Y-124044284D01*
X201090714Y-124044284D02*
X201233571Y-123972856D01*
X201233571Y-123972856D02*
X201305000Y-123901427D01*
X201305000Y-123901427D02*
X201376428Y-123758570D01*
X201376428Y-123758570D02*
X201376428Y-123615713D01*
X201376428Y-123615713D02*
X201305000Y-123472856D01*
X201305000Y-123472856D02*
X201233571Y-123401427D01*
X201233571Y-123401427D02*
X201090714Y-123329998D01*
X201090714Y-123329998D02*
X200805000Y-123258570D01*
X200805000Y-123258570D02*
X200447857Y-123258570D01*
X200447857Y-123258570D02*
X200162142Y-123329998D01*
X200162142Y-123329998D02*
X200019285Y-123401427D01*
X200019285Y-123401427D02*
X199947857Y-123472856D01*
X199947857Y-123472856D02*
X199876428Y-123615713D01*
X138297141Y-121210357D02*
X138439999Y-121138928D01*
X138439999Y-121138928D02*
X138654284Y-121138928D01*
X138654284Y-121138928D02*
X138868570Y-121210357D01*
X138868570Y-121210357D02*
X139011427Y-121353214D01*
X139011427Y-121353214D02*
X139082856Y-121496071D01*
X139082856Y-121496071D02*
X139154284Y-121781785D01*
X139154284Y-121781785D02*
X139154284Y-121996071D01*
X139154284Y-121996071D02*
X139082856Y-122281785D01*
X139082856Y-122281785D02*
X139011427Y-122424642D01*
X139011427Y-122424642D02*
X138868570Y-122567500D01*
X138868570Y-122567500D02*
X138654284Y-122638928D01*
X138654284Y-122638928D02*
X138511427Y-122638928D01*
X138511427Y-122638928D02*
X138297141Y-122567500D01*
X138297141Y-122567500D02*
X138225713Y-122496071D01*
X138225713Y-122496071D02*
X138225713Y-121996071D01*
X138225713Y-121996071D02*
X138511427Y-121996071D01*
X137582856Y-122638928D02*
X137582856Y-121138928D01*
X137582856Y-121138928D02*
X137011427Y-121138928D01*
X137011427Y-121138928D02*
X136868570Y-121210357D01*
X136868570Y-121210357D02*
X136797141Y-121281785D01*
X136797141Y-121281785D02*
X136725713Y-121424642D01*
X136725713Y-121424642D02*
X136725713Y-121638928D01*
X136725713Y-121638928D02*
X136797141Y-121781785D01*
X136797141Y-121781785D02*
X136868570Y-121853214D01*
X136868570Y-121853214D02*
X137011427Y-121924642D01*
X137011427Y-121924642D02*
X137582856Y-121924642D01*
X136082856Y-122638928D02*
X136082856Y-121138928D01*
X135082855Y-121138928D02*
X134797141Y-121138928D01*
X134797141Y-121138928D02*
X134654284Y-121210357D01*
X134654284Y-121210357D02*
X134511427Y-121353214D01*
X134511427Y-121353214D02*
X134439998Y-121638928D01*
X134439998Y-121638928D02*
X134439998Y-122138928D01*
X134439998Y-122138928D02*
X134511427Y-122424642D01*
X134511427Y-122424642D02*
X134654284Y-122567500D01*
X134654284Y-122567500D02*
X134797141Y-122638928D01*
X134797141Y-122638928D02*
X135082855Y-122638928D01*
X135082855Y-122638928D02*
X135225713Y-122567500D01*
X135225713Y-122567500D02*
X135368570Y-122424642D01*
X135368570Y-122424642D02*
X135439998Y-122138928D01*
X135439998Y-122138928D02*
X135439998Y-121638928D01*
X135439998Y-121638928D02*
X135368570Y-121353214D01*
X135368570Y-121353214D02*
X135225713Y-121210357D01*
X135225713Y-121210357D02*
X135082855Y-121138928D01*
X133011426Y-122638928D02*
X133868569Y-122638928D01*
X133439998Y-122638928D02*
X133439998Y-121138928D01*
X133439998Y-121138928D02*
X133582855Y-121353214D01*
X133582855Y-121353214D02*
X133725712Y-121496071D01*
X133725712Y-121496071D02*
X133868569Y-121567500D01*
X131725713Y-121138928D02*
X132011427Y-121138928D01*
X132011427Y-121138928D02*
X132154284Y-121210357D01*
X132154284Y-121210357D02*
X132225713Y-121281785D01*
X132225713Y-121281785D02*
X132368570Y-121496071D01*
X132368570Y-121496071D02*
X132439998Y-121781785D01*
X132439998Y-121781785D02*
X132439998Y-122353214D01*
X132439998Y-122353214D02*
X132368570Y-122496071D01*
X132368570Y-122496071D02*
X132297141Y-122567500D01*
X132297141Y-122567500D02*
X132154284Y-122638928D01*
X132154284Y-122638928D02*
X131868570Y-122638928D01*
X131868570Y-122638928D02*
X131725713Y-122567500D01*
X131725713Y-122567500D02*
X131654284Y-122496071D01*
X131654284Y-122496071D02*
X131582855Y-122353214D01*
X131582855Y-122353214D02*
X131582855Y-121996071D01*
X131582855Y-121996071D02*
X131654284Y-121853214D01*
X131654284Y-121853214D02*
X131725713Y-121781785D01*
X131725713Y-121781785D02*
X131868570Y-121710357D01*
X131868570Y-121710357D02*
X132154284Y-121710357D01*
X132154284Y-121710357D02*
X132297141Y-121781785D01*
X132297141Y-121781785D02*
X132368570Y-121853214D01*
X132368570Y-121853214D02*
X132439998Y-121996071D01*
X129797142Y-121853214D02*
X128654285Y-121853214D01*
X128654285Y-122281785D02*
X129797142Y-122281785D01*
X126797142Y-122638928D02*
X126797142Y-121138928D01*
X126797142Y-121138928D02*
X126225713Y-121138928D01*
X126225713Y-121138928D02*
X126082856Y-121210357D01*
X126082856Y-121210357D02*
X126011427Y-121281785D01*
X126011427Y-121281785D02*
X125939999Y-121424642D01*
X125939999Y-121424642D02*
X125939999Y-121638928D01*
X125939999Y-121638928D02*
X126011427Y-121781785D01*
X126011427Y-121781785D02*
X126082856Y-121853214D01*
X126082856Y-121853214D02*
X126225713Y-121924642D01*
X126225713Y-121924642D02*
X126797142Y-121924642D01*
X125082856Y-122638928D02*
X125225713Y-122567500D01*
X125225713Y-122567500D02*
X125297142Y-122496071D01*
X125297142Y-122496071D02*
X125368570Y-122353214D01*
X125368570Y-122353214D02*
X125368570Y-121924642D01*
X125368570Y-121924642D02*
X125297142Y-121781785D01*
X125297142Y-121781785D02*
X125225713Y-121710357D01*
X125225713Y-121710357D02*
X125082856Y-121638928D01*
X125082856Y-121638928D02*
X124868570Y-121638928D01*
X124868570Y-121638928D02*
X124725713Y-121710357D01*
X124725713Y-121710357D02*
X124654285Y-121781785D01*
X124654285Y-121781785D02*
X124582856Y-121924642D01*
X124582856Y-121924642D02*
X124582856Y-122353214D01*
X124582856Y-122353214D02*
X124654285Y-122496071D01*
X124654285Y-122496071D02*
X124725713Y-122567500D01*
X124725713Y-122567500D02*
X124868570Y-122638928D01*
X124868570Y-122638928D02*
X125082856Y-122638928D01*
X123939999Y-122638928D02*
X123939999Y-121638928D01*
X123939999Y-121924642D02*
X123868570Y-121781785D01*
X123868570Y-121781785D02*
X123797142Y-121710357D01*
X123797142Y-121710357D02*
X123654284Y-121638928D01*
X123654284Y-121638928D02*
X123511427Y-121638928D01*
X123225713Y-121638928D02*
X122654285Y-121638928D01*
X123011428Y-121138928D02*
X123011428Y-122424642D01*
X123011428Y-122424642D02*
X122939999Y-122567500D01*
X122939999Y-122567500D02*
X122797142Y-122638928D01*
X122797142Y-122638928D02*
X122654285Y-122638928D01*
X121368570Y-122638928D02*
X122225713Y-122638928D01*
X121797142Y-122638928D02*
X121797142Y-121138928D01*
X121797142Y-121138928D02*
X121939999Y-121353214D01*
X121939999Y-121353214D02*
X122082856Y-121496071D01*
X122082856Y-121496071D02*
X122225713Y-121567500D01*
X117654285Y-121210357D02*
X117797143Y-121138928D01*
X117797143Y-121138928D02*
X118011428Y-121138928D01*
X118011428Y-121138928D02*
X118225714Y-121210357D01*
X118225714Y-121210357D02*
X118368571Y-121353214D01*
X118368571Y-121353214D02*
X118440000Y-121496071D01*
X118440000Y-121496071D02*
X118511428Y-121781785D01*
X118511428Y-121781785D02*
X118511428Y-121996071D01*
X118511428Y-121996071D02*
X118440000Y-122281785D01*
X118440000Y-122281785D02*
X118368571Y-122424642D01*
X118368571Y-122424642D02*
X118225714Y-122567500D01*
X118225714Y-122567500D02*
X118011428Y-122638928D01*
X118011428Y-122638928D02*
X117868571Y-122638928D01*
X117868571Y-122638928D02*
X117654285Y-122567500D01*
X117654285Y-122567500D02*
X117582857Y-122496071D01*
X117582857Y-122496071D02*
X117582857Y-121996071D01*
X117582857Y-121996071D02*
X117868571Y-121996071D01*
X116940000Y-122638928D02*
X116940000Y-121138928D01*
X116940000Y-121138928D02*
X116368571Y-121138928D01*
X116368571Y-121138928D02*
X116225714Y-121210357D01*
X116225714Y-121210357D02*
X116154285Y-121281785D01*
X116154285Y-121281785D02*
X116082857Y-121424642D01*
X116082857Y-121424642D02*
X116082857Y-121638928D01*
X116082857Y-121638928D02*
X116154285Y-121781785D01*
X116154285Y-121781785D02*
X116225714Y-121853214D01*
X116225714Y-121853214D02*
X116368571Y-121924642D01*
X116368571Y-121924642D02*
X116940000Y-121924642D01*
X115440000Y-122638928D02*
X115440000Y-121138928D01*
X114439999Y-121138928D02*
X114154285Y-121138928D01*
X114154285Y-121138928D02*
X114011428Y-121210357D01*
X114011428Y-121210357D02*
X113868571Y-121353214D01*
X113868571Y-121353214D02*
X113797142Y-121638928D01*
X113797142Y-121638928D02*
X113797142Y-122138928D01*
X113797142Y-122138928D02*
X113868571Y-122424642D01*
X113868571Y-122424642D02*
X114011428Y-122567500D01*
X114011428Y-122567500D02*
X114154285Y-122638928D01*
X114154285Y-122638928D02*
X114439999Y-122638928D01*
X114439999Y-122638928D02*
X114582857Y-122567500D01*
X114582857Y-122567500D02*
X114725714Y-122424642D01*
X114725714Y-122424642D02*
X114797142Y-122138928D01*
X114797142Y-122138928D02*
X114797142Y-121638928D01*
X114797142Y-121638928D02*
X114725714Y-121353214D01*
X114725714Y-121353214D02*
X114582857Y-121210357D01*
X114582857Y-121210357D02*
X114439999Y-121138928D01*
X113225713Y-121281785D02*
X113154285Y-121210357D01*
X113154285Y-121210357D02*
X113011428Y-121138928D01*
X113011428Y-121138928D02*
X112654285Y-121138928D01*
X112654285Y-121138928D02*
X112511428Y-121210357D01*
X112511428Y-121210357D02*
X112439999Y-121281785D01*
X112439999Y-121281785D02*
X112368570Y-121424642D01*
X112368570Y-121424642D02*
X112368570Y-121567500D01*
X112368570Y-121567500D02*
X112439999Y-121781785D01*
X112439999Y-121781785D02*
X113297142Y-122638928D01*
X113297142Y-122638928D02*
X112368570Y-122638928D01*
X111868571Y-121138928D02*
X110939999Y-121138928D01*
X110939999Y-121138928D02*
X111439999Y-121710357D01*
X111439999Y-121710357D02*
X111225714Y-121710357D01*
X111225714Y-121710357D02*
X111082857Y-121781785D01*
X111082857Y-121781785D02*
X111011428Y-121853214D01*
X111011428Y-121853214D02*
X110939999Y-121996071D01*
X110939999Y-121996071D02*
X110939999Y-122353214D01*
X110939999Y-122353214D02*
X111011428Y-122496071D01*
X111011428Y-122496071D02*
X111082857Y-122567500D01*
X111082857Y-122567500D02*
X111225714Y-122638928D01*
X111225714Y-122638928D02*
X111654285Y-122638928D01*
X111654285Y-122638928D02*
X111797142Y-122567500D01*
X111797142Y-122567500D02*
X111868571Y-122496071D01*
X109154286Y-121853214D02*
X108011429Y-121853214D01*
X108011429Y-122281785D02*
X109154286Y-122281785D01*
X106154286Y-122638928D02*
X106154286Y-121138928D01*
X106154286Y-121138928D02*
X105582857Y-121138928D01*
X105582857Y-121138928D02*
X105440000Y-121210357D01*
X105440000Y-121210357D02*
X105368571Y-121281785D01*
X105368571Y-121281785D02*
X105297143Y-121424642D01*
X105297143Y-121424642D02*
X105297143Y-121638928D01*
X105297143Y-121638928D02*
X105368571Y-121781785D01*
X105368571Y-121781785D02*
X105440000Y-121853214D01*
X105440000Y-121853214D02*
X105582857Y-121924642D01*
X105582857Y-121924642D02*
X106154286Y-121924642D01*
X104440000Y-122638928D02*
X104582857Y-122567500D01*
X104582857Y-122567500D02*
X104654286Y-122496071D01*
X104654286Y-122496071D02*
X104725714Y-122353214D01*
X104725714Y-122353214D02*
X104725714Y-121924642D01*
X104725714Y-121924642D02*
X104654286Y-121781785D01*
X104654286Y-121781785D02*
X104582857Y-121710357D01*
X104582857Y-121710357D02*
X104440000Y-121638928D01*
X104440000Y-121638928D02*
X104225714Y-121638928D01*
X104225714Y-121638928D02*
X104082857Y-121710357D01*
X104082857Y-121710357D02*
X104011429Y-121781785D01*
X104011429Y-121781785D02*
X103940000Y-121924642D01*
X103940000Y-121924642D02*
X103940000Y-122353214D01*
X103940000Y-122353214D02*
X104011429Y-122496071D01*
X104011429Y-122496071D02*
X104082857Y-122567500D01*
X104082857Y-122567500D02*
X104225714Y-122638928D01*
X104225714Y-122638928D02*
X104440000Y-122638928D01*
X103297143Y-122638928D02*
X103297143Y-121638928D01*
X103297143Y-121924642D02*
X103225714Y-121781785D01*
X103225714Y-121781785D02*
X103154286Y-121710357D01*
X103154286Y-121710357D02*
X103011428Y-121638928D01*
X103011428Y-121638928D02*
X102868571Y-121638928D01*
X102582857Y-121638928D02*
X102011429Y-121638928D01*
X102368572Y-121138928D02*
X102368572Y-122424642D01*
X102368572Y-122424642D02*
X102297143Y-122567500D01*
X102297143Y-122567500D02*
X102154286Y-122638928D01*
X102154286Y-122638928D02*
X102011429Y-122638928D01*
X100797143Y-121138928D02*
X101511429Y-121138928D01*
X101511429Y-121138928D02*
X101582857Y-121853214D01*
X101582857Y-121853214D02*
X101511429Y-121781785D01*
X101511429Y-121781785D02*
X101368572Y-121710357D01*
X101368572Y-121710357D02*
X101011429Y-121710357D01*
X101011429Y-121710357D02*
X100868572Y-121781785D01*
X100868572Y-121781785D02*
X100797143Y-121853214D01*
X100797143Y-121853214D02*
X100725714Y-121996071D01*
X100725714Y-121996071D02*
X100725714Y-122353214D01*
X100725714Y-122353214D02*
X100797143Y-122496071D01*
X100797143Y-122496071D02*
X100868572Y-122567500D01*
X100868572Y-122567500D02*
X101011429Y-122638928D01*
X101011429Y-122638928D02*
X101368572Y-122638928D01*
X101368572Y-122638928D02*
X101511429Y-122567500D01*
X101511429Y-122567500D02*
X101582857Y-122496071D01*
X138297141Y-123640357D02*
X138439999Y-123568928D01*
X138439999Y-123568928D02*
X138654284Y-123568928D01*
X138654284Y-123568928D02*
X138868570Y-123640357D01*
X138868570Y-123640357D02*
X139011427Y-123783214D01*
X139011427Y-123783214D02*
X139082856Y-123926071D01*
X139082856Y-123926071D02*
X139154284Y-124211785D01*
X139154284Y-124211785D02*
X139154284Y-124426071D01*
X139154284Y-124426071D02*
X139082856Y-124711785D01*
X139082856Y-124711785D02*
X139011427Y-124854642D01*
X139011427Y-124854642D02*
X138868570Y-124997500D01*
X138868570Y-124997500D02*
X138654284Y-125068928D01*
X138654284Y-125068928D02*
X138511427Y-125068928D01*
X138511427Y-125068928D02*
X138297141Y-124997500D01*
X138297141Y-124997500D02*
X138225713Y-124926071D01*
X138225713Y-124926071D02*
X138225713Y-124426071D01*
X138225713Y-124426071D02*
X138511427Y-124426071D01*
X137582856Y-125068928D02*
X137582856Y-123568928D01*
X137582856Y-123568928D02*
X137011427Y-123568928D01*
X137011427Y-123568928D02*
X136868570Y-123640357D01*
X136868570Y-123640357D02*
X136797141Y-123711785D01*
X136797141Y-123711785D02*
X136725713Y-123854642D01*
X136725713Y-123854642D02*
X136725713Y-124068928D01*
X136725713Y-124068928D02*
X136797141Y-124211785D01*
X136797141Y-124211785D02*
X136868570Y-124283214D01*
X136868570Y-124283214D02*
X137011427Y-124354642D01*
X137011427Y-124354642D02*
X137582856Y-124354642D01*
X136082856Y-125068928D02*
X136082856Y-123568928D01*
X135082855Y-123568928D02*
X134797141Y-123568928D01*
X134797141Y-123568928D02*
X134654284Y-123640357D01*
X134654284Y-123640357D02*
X134511427Y-123783214D01*
X134511427Y-123783214D02*
X134439998Y-124068928D01*
X134439998Y-124068928D02*
X134439998Y-124568928D01*
X134439998Y-124568928D02*
X134511427Y-124854642D01*
X134511427Y-124854642D02*
X134654284Y-124997500D01*
X134654284Y-124997500D02*
X134797141Y-125068928D01*
X134797141Y-125068928D02*
X135082855Y-125068928D01*
X135082855Y-125068928D02*
X135225713Y-124997500D01*
X135225713Y-124997500D02*
X135368570Y-124854642D01*
X135368570Y-124854642D02*
X135439998Y-124568928D01*
X135439998Y-124568928D02*
X135439998Y-124068928D01*
X135439998Y-124068928D02*
X135368570Y-123783214D01*
X135368570Y-123783214D02*
X135225713Y-123640357D01*
X135225713Y-123640357D02*
X135082855Y-123568928D01*
X133511426Y-123568928D02*
X133368569Y-123568928D01*
X133368569Y-123568928D02*
X133225712Y-123640357D01*
X133225712Y-123640357D02*
X133154284Y-123711785D01*
X133154284Y-123711785D02*
X133082855Y-123854642D01*
X133082855Y-123854642D02*
X133011426Y-124140357D01*
X133011426Y-124140357D02*
X133011426Y-124497500D01*
X133011426Y-124497500D02*
X133082855Y-124783214D01*
X133082855Y-124783214D02*
X133154284Y-124926071D01*
X133154284Y-124926071D02*
X133225712Y-124997500D01*
X133225712Y-124997500D02*
X133368569Y-125068928D01*
X133368569Y-125068928D02*
X133511426Y-125068928D01*
X133511426Y-125068928D02*
X133654284Y-124997500D01*
X133654284Y-124997500D02*
X133725712Y-124926071D01*
X133725712Y-124926071D02*
X133797141Y-124783214D01*
X133797141Y-124783214D02*
X133868569Y-124497500D01*
X133868569Y-124497500D02*
X133868569Y-124140357D01*
X133868569Y-124140357D02*
X133797141Y-123854642D01*
X133797141Y-123854642D02*
X133725712Y-123711785D01*
X133725712Y-123711785D02*
X133654284Y-123640357D01*
X133654284Y-123640357D02*
X133511426Y-123568928D01*
X131725713Y-124068928D02*
X131725713Y-125068928D01*
X132082855Y-123497500D02*
X132439998Y-124568928D01*
X132439998Y-124568928D02*
X131511427Y-124568928D01*
X129797142Y-124283214D02*
X128654285Y-124283214D01*
X128654285Y-124711785D02*
X129797142Y-124711785D01*
X126797142Y-125068928D02*
X126797142Y-123568928D01*
X126797142Y-123568928D02*
X126225713Y-123568928D01*
X126225713Y-123568928D02*
X126082856Y-123640357D01*
X126082856Y-123640357D02*
X126011427Y-123711785D01*
X126011427Y-123711785D02*
X125939999Y-123854642D01*
X125939999Y-123854642D02*
X125939999Y-124068928D01*
X125939999Y-124068928D02*
X126011427Y-124211785D01*
X126011427Y-124211785D02*
X126082856Y-124283214D01*
X126082856Y-124283214D02*
X126225713Y-124354642D01*
X126225713Y-124354642D02*
X126797142Y-124354642D01*
X125082856Y-125068928D02*
X125225713Y-124997500D01*
X125225713Y-124997500D02*
X125297142Y-124926071D01*
X125297142Y-124926071D02*
X125368570Y-124783214D01*
X125368570Y-124783214D02*
X125368570Y-124354642D01*
X125368570Y-124354642D02*
X125297142Y-124211785D01*
X125297142Y-124211785D02*
X125225713Y-124140357D01*
X125225713Y-124140357D02*
X125082856Y-124068928D01*
X125082856Y-124068928D02*
X124868570Y-124068928D01*
X124868570Y-124068928D02*
X124725713Y-124140357D01*
X124725713Y-124140357D02*
X124654285Y-124211785D01*
X124654285Y-124211785D02*
X124582856Y-124354642D01*
X124582856Y-124354642D02*
X124582856Y-124783214D01*
X124582856Y-124783214D02*
X124654285Y-124926071D01*
X124654285Y-124926071D02*
X124725713Y-124997500D01*
X124725713Y-124997500D02*
X124868570Y-125068928D01*
X124868570Y-125068928D02*
X125082856Y-125068928D01*
X123939999Y-125068928D02*
X123939999Y-124068928D01*
X123939999Y-124354642D02*
X123868570Y-124211785D01*
X123868570Y-124211785D02*
X123797142Y-124140357D01*
X123797142Y-124140357D02*
X123654284Y-124068928D01*
X123654284Y-124068928D02*
X123511427Y-124068928D01*
X123225713Y-124068928D02*
X122654285Y-124068928D01*
X123011428Y-123568928D02*
X123011428Y-124854642D01*
X123011428Y-124854642D02*
X122939999Y-124997500D01*
X122939999Y-124997500D02*
X122797142Y-125068928D01*
X122797142Y-125068928D02*
X122654285Y-125068928D01*
X122225713Y-123711785D02*
X122154285Y-123640357D01*
X122154285Y-123640357D02*
X122011428Y-123568928D01*
X122011428Y-123568928D02*
X121654285Y-123568928D01*
X121654285Y-123568928D02*
X121511428Y-123640357D01*
X121511428Y-123640357D02*
X121439999Y-123711785D01*
X121439999Y-123711785D02*
X121368570Y-123854642D01*
X121368570Y-123854642D02*
X121368570Y-123997500D01*
X121368570Y-123997500D02*
X121439999Y-124211785D01*
X121439999Y-124211785D02*
X122297142Y-125068928D01*
X122297142Y-125068928D02*
X121368570Y-125068928D01*
X117654285Y-123640357D02*
X117797143Y-123568928D01*
X117797143Y-123568928D02*
X118011428Y-123568928D01*
X118011428Y-123568928D02*
X118225714Y-123640357D01*
X118225714Y-123640357D02*
X118368571Y-123783214D01*
X118368571Y-123783214D02*
X118440000Y-123926071D01*
X118440000Y-123926071D02*
X118511428Y-124211785D01*
X118511428Y-124211785D02*
X118511428Y-124426071D01*
X118511428Y-124426071D02*
X118440000Y-124711785D01*
X118440000Y-124711785D02*
X118368571Y-124854642D01*
X118368571Y-124854642D02*
X118225714Y-124997500D01*
X118225714Y-124997500D02*
X118011428Y-125068928D01*
X118011428Y-125068928D02*
X117868571Y-125068928D01*
X117868571Y-125068928D02*
X117654285Y-124997500D01*
X117654285Y-124997500D02*
X117582857Y-124926071D01*
X117582857Y-124926071D02*
X117582857Y-124426071D01*
X117582857Y-124426071D02*
X117868571Y-124426071D01*
X116940000Y-125068928D02*
X116940000Y-123568928D01*
X116940000Y-123568928D02*
X116368571Y-123568928D01*
X116368571Y-123568928D02*
X116225714Y-123640357D01*
X116225714Y-123640357D02*
X116154285Y-123711785D01*
X116154285Y-123711785D02*
X116082857Y-123854642D01*
X116082857Y-123854642D02*
X116082857Y-124068928D01*
X116082857Y-124068928D02*
X116154285Y-124211785D01*
X116154285Y-124211785D02*
X116225714Y-124283214D01*
X116225714Y-124283214D02*
X116368571Y-124354642D01*
X116368571Y-124354642D02*
X116940000Y-124354642D01*
X115440000Y-125068928D02*
X115440000Y-123568928D01*
X114439999Y-123568928D02*
X114154285Y-123568928D01*
X114154285Y-123568928D02*
X114011428Y-123640357D01*
X114011428Y-123640357D02*
X113868571Y-123783214D01*
X113868571Y-123783214D02*
X113797142Y-124068928D01*
X113797142Y-124068928D02*
X113797142Y-124568928D01*
X113797142Y-124568928D02*
X113868571Y-124854642D01*
X113868571Y-124854642D02*
X114011428Y-124997500D01*
X114011428Y-124997500D02*
X114154285Y-125068928D01*
X114154285Y-125068928D02*
X114439999Y-125068928D01*
X114439999Y-125068928D02*
X114582857Y-124997500D01*
X114582857Y-124997500D02*
X114725714Y-124854642D01*
X114725714Y-124854642D02*
X114797142Y-124568928D01*
X114797142Y-124568928D02*
X114797142Y-124068928D01*
X114797142Y-124068928D02*
X114725714Y-123783214D01*
X114725714Y-123783214D02*
X114582857Y-123640357D01*
X114582857Y-123640357D02*
X114439999Y-123568928D01*
X112368570Y-125068928D02*
X113225713Y-125068928D01*
X112797142Y-125068928D02*
X112797142Y-123568928D01*
X112797142Y-123568928D02*
X112939999Y-123783214D01*
X112939999Y-123783214D02*
X113082856Y-123926071D01*
X113082856Y-123926071D02*
X113225713Y-123997500D01*
X111654285Y-125068928D02*
X111368571Y-125068928D01*
X111368571Y-125068928D02*
X111225714Y-124997500D01*
X111225714Y-124997500D02*
X111154285Y-124926071D01*
X111154285Y-124926071D02*
X111011428Y-124711785D01*
X111011428Y-124711785D02*
X110939999Y-124426071D01*
X110939999Y-124426071D02*
X110939999Y-123854642D01*
X110939999Y-123854642D02*
X111011428Y-123711785D01*
X111011428Y-123711785D02*
X111082857Y-123640357D01*
X111082857Y-123640357D02*
X111225714Y-123568928D01*
X111225714Y-123568928D02*
X111511428Y-123568928D01*
X111511428Y-123568928D02*
X111654285Y-123640357D01*
X111654285Y-123640357D02*
X111725714Y-123711785D01*
X111725714Y-123711785D02*
X111797142Y-123854642D01*
X111797142Y-123854642D02*
X111797142Y-124211785D01*
X111797142Y-124211785D02*
X111725714Y-124354642D01*
X111725714Y-124354642D02*
X111654285Y-124426071D01*
X111654285Y-124426071D02*
X111511428Y-124497500D01*
X111511428Y-124497500D02*
X111225714Y-124497500D01*
X111225714Y-124497500D02*
X111082857Y-124426071D01*
X111082857Y-124426071D02*
X111011428Y-124354642D01*
X111011428Y-124354642D02*
X110939999Y-124211785D01*
X109154286Y-124283214D02*
X108011429Y-124283214D01*
X108011429Y-124711785D02*
X109154286Y-124711785D01*
X106154286Y-125068928D02*
X106154286Y-123568928D01*
X106154286Y-123568928D02*
X105582857Y-123568928D01*
X105582857Y-123568928D02*
X105440000Y-123640357D01*
X105440000Y-123640357D02*
X105368571Y-123711785D01*
X105368571Y-123711785D02*
X105297143Y-123854642D01*
X105297143Y-123854642D02*
X105297143Y-124068928D01*
X105297143Y-124068928D02*
X105368571Y-124211785D01*
X105368571Y-124211785D02*
X105440000Y-124283214D01*
X105440000Y-124283214D02*
X105582857Y-124354642D01*
X105582857Y-124354642D02*
X106154286Y-124354642D01*
X104440000Y-125068928D02*
X104582857Y-124997500D01*
X104582857Y-124997500D02*
X104654286Y-124926071D01*
X104654286Y-124926071D02*
X104725714Y-124783214D01*
X104725714Y-124783214D02*
X104725714Y-124354642D01*
X104725714Y-124354642D02*
X104654286Y-124211785D01*
X104654286Y-124211785D02*
X104582857Y-124140357D01*
X104582857Y-124140357D02*
X104440000Y-124068928D01*
X104440000Y-124068928D02*
X104225714Y-124068928D01*
X104225714Y-124068928D02*
X104082857Y-124140357D01*
X104082857Y-124140357D02*
X104011429Y-124211785D01*
X104011429Y-124211785D02*
X103940000Y-124354642D01*
X103940000Y-124354642D02*
X103940000Y-124783214D01*
X103940000Y-124783214D02*
X104011429Y-124926071D01*
X104011429Y-124926071D02*
X104082857Y-124997500D01*
X104082857Y-124997500D02*
X104225714Y-125068928D01*
X104225714Y-125068928D02*
X104440000Y-125068928D01*
X103297143Y-125068928D02*
X103297143Y-124068928D01*
X103297143Y-124354642D02*
X103225714Y-124211785D01*
X103225714Y-124211785D02*
X103154286Y-124140357D01*
X103154286Y-124140357D02*
X103011428Y-124068928D01*
X103011428Y-124068928D02*
X102868571Y-124068928D01*
X102582857Y-124068928D02*
X102011429Y-124068928D01*
X102368572Y-123568928D02*
X102368572Y-124854642D01*
X102368572Y-124854642D02*
X102297143Y-124997500D01*
X102297143Y-124997500D02*
X102154286Y-125068928D01*
X102154286Y-125068928D02*
X102011429Y-125068928D01*
X100868572Y-123568928D02*
X101154286Y-123568928D01*
X101154286Y-123568928D02*
X101297143Y-123640357D01*
X101297143Y-123640357D02*
X101368572Y-123711785D01*
X101368572Y-123711785D02*
X101511429Y-123926071D01*
X101511429Y-123926071D02*
X101582857Y-124211785D01*
X101582857Y-124211785D02*
X101582857Y-124783214D01*
X101582857Y-124783214D02*
X101511429Y-124926071D01*
X101511429Y-124926071D02*
X101440000Y-124997500D01*
X101440000Y-124997500D02*
X101297143Y-125068928D01*
X101297143Y-125068928D02*
X101011429Y-125068928D01*
X101011429Y-125068928D02*
X100868572Y-124997500D01*
X100868572Y-124997500D02*
X100797143Y-124926071D01*
X100797143Y-124926071D02*
X100725714Y-124783214D01*
X100725714Y-124783214D02*
X100725714Y-124426071D01*
X100725714Y-124426071D02*
X100797143Y-124283214D01*
X100797143Y-124283214D02*
X100868572Y-124211785D01*
X100868572Y-124211785D02*
X101011429Y-124140357D01*
X101011429Y-124140357D02*
X101297143Y-124140357D01*
X101297143Y-124140357D02*
X101440000Y-124211785D01*
X101440000Y-124211785D02*
X101511429Y-124283214D01*
X101511429Y-124283214D02*
X101582857Y-124426071D01*
X138297141Y-126070357D02*
X138439999Y-125998928D01*
X138439999Y-125998928D02*
X138654284Y-125998928D01*
X138654284Y-125998928D02*
X138868570Y-126070357D01*
X138868570Y-126070357D02*
X139011427Y-126213214D01*
X139011427Y-126213214D02*
X139082856Y-126356071D01*
X139082856Y-126356071D02*
X139154284Y-126641785D01*
X139154284Y-126641785D02*
X139154284Y-126856071D01*
X139154284Y-126856071D02*
X139082856Y-127141785D01*
X139082856Y-127141785D02*
X139011427Y-127284642D01*
X139011427Y-127284642D02*
X138868570Y-127427500D01*
X138868570Y-127427500D02*
X138654284Y-127498928D01*
X138654284Y-127498928D02*
X138511427Y-127498928D01*
X138511427Y-127498928D02*
X138297141Y-127427500D01*
X138297141Y-127427500D02*
X138225713Y-127356071D01*
X138225713Y-127356071D02*
X138225713Y-126856071D01*
X138225713Y-126856071D02*
X138511427Y-126856071D01*
X137582856Y-127498928D02*
X137582856Y-125998928D01*
X137582856Y-125998928D02*
X137011427Y-125998928D01*
X137011427Y-125998928D02*
X136868570Y-126070357D01*
X136868570Y-126070357D02*
X136797141Y-126141785D01*
X136797141Y-126141785D02*
X136725713Y-126284642D01*
X136725713Y-126284642D02*
X136725713Y-126498928D01*
X136725713Y-126498928D02*
X136797141Y-126641785D01*
X136797141Y-126641785D02*
X136868570Y-126713214D01*
X136868570Y-126713214D02*
X137011427Y-126784642D01*
X137011427Y-126784642D02*
X137582856Y-126784642D01*
X136082856Y-127498928D02*
X136082856Y-125998928D01*
X135082855Y-125998928D02*
X134797141Y-125998928D01*
X134797141Y-125998928D02*
X134654284Y-126070357D01*
X134654284Y-126070357D02*
X134511427Y-126213214D01*
X134511427Y-126213214D02*
X134439998Y-126498928D01*
X134439998Y-126498928D02*
X134439998Y-126998928D01*
X134439998Y-126998928D02*
X134511427Y-127284642D01*
X134511427Y-127284642D02*
X134654284Y-127427500D01*
X134654284Y-127427500D02*
X134797141Y-127498928D01*
X134797141Y-127498928D02*
X135082855Y-127498928D01*
X135082855Y-127498928D02*
X135225713Y-127427500D01*
X135225713Y-127427500D02*
X135368570Y-127284642D01*
X135368570Y-127284642D02*
X135439998Y-126998928D01*
X135439998Y-126998928D02*
X135439998Y-126498928D01*
X135439998Y-126498928D02*
X135368570Y-126213214D01*
X135368570Y-126213214D02*
X135225713Y-126070357D01*
X135225713Y-126070357D02*
X135082855Y-125998928D01*
X133511426Y-125998928D02*
X133368569Y-125998928D01*
X133368569Y-125998928D02*
X133225712Y-126070357D01*
X133225712Y-126070357D02*
X133154284Y-126141785D01*
X133154284Y-126141785D02*
X133082855Y-126284642D01*
X133082855Y-126284642D02*
X133011426Y-126570357D01*
X133011426Y-126570357D02*
X133011426Y-126927500D01*
X133011426Y-126927500D02*
X133082855Y-127213214D01*
X133082855Y-127213214D02*
X133154284Y-127356071D01*
X133154284Y-127356071D02*
X133225712Y-127427500D01*
X133225712Y-127427500D02*
X133368569Y-127498928D01*
X133368569Y-127498928D02*
X133511426Y-127498928D01*
X133511426Y-127498928D02*
X133654284Y-127427500D01*
X133654284Y-127427500D02*
X133725712Y-127356071D01*
X133725712Y-127356071D02*
X133797141Y-127213214D01*
X133797141Y-127213214D02*
X133868569Y-126927500D01*
X133868569Y-126927500D02*
X133868569Y-126570357D01*
X133868569Y-126570357D02*
X133797141Y-126284642D01*
X133797141Y-126284642D02*
X133725712Y-126141785D01*
X133725712Y-126141785D02*
X133654284Y-126070357D01*
X133654284Y-126070357D02*
X133511426Y-125998928D01*
X132082855Y-125998928D02*
X131939998Y-125998928D01*
X131939998Y-125998928D02*
X131797141Y-126070357D01*
X131797141Y-126070357D02*
X131725713Y-126141785D01*
X131725713Y-126141785D02*
X131654284Y-126284642D01*
X131654284Y-126284642D02*
X131582855Y-126570357D01*
X131582855Y-126570357D02*
X131582855Y-126927500D01*
X131582855Y-126927500D02*
X131654284Y-127213214D01*
X131654284Y-127213214D02*
X131725713Y-127356071D01*
X131725713Y-127356071D02*
X131797141Y-127427500D01*
X131797141Y-127427500D02*
X131939998Y-127498928D01*
X131939998Y-127498928D02*
X132082855Y-127498928D01*
X132082855Y-127498928D02*
X132225713Y-127427500D01*
X132225713Y-127427500D02*
X132297141Y-127356071D01*
X132297141Y-127356071D02*
X132368570Y-127213214D01*
X132368570Y-127213214D02*
X132439998Y-126927500D01*
X132439998Y-126927500D02*
X132439998Y-126570357D01*
X132439998Y-126570357D02*
X132368570Y-126284642D01*
X132368570Y-126284642D02*
X132297141Y-126141785D01*
X132297141Y-126141785D02*
X132225713Y-126070357D01*
X132225713Y-126070357D02*
X132082855Y-125998928D01*
X129797142Y-126713214D02*
X128654285Y-126713214D01*
X128654285Y-127141785D02*
X129797142Y-127141785D01*
X126797142Y-127498928D02*
X126797142Y-125998928D01*
X126797142Y-125998928D02*
X126225713Y-125998928D01*
X126225713Y-125998928D02*
X126082856Y-126070357D01*
X126082856Y-126070357D02*
X126011427Y-126141785D01*
X126011427Y-126141785D02*
X125939999Y-126284642D01*
X125939999Y-126284642D02*
X125939999Y-126498928D01*
X125939999Y-126498928D02*
X126011427Y-126641785D01*
X126011427Y-126641785D02*
X126082856Y-126713214D01*
X126082856Y-126713214D02*
X126225713Y-126784642D01*
X126225713Y-126784642D02*
X126797142Y-126784642D01*
X125082856Y-127498928D02*
X125225713Y-127427500D01*
X125225713Y-127427500D02*
X125297142Y-127356071D01*
X125297142Y-127356071D02*
X125368570Y-127213214D01*
X125368570Y-127213214D02*
X125368570Y-126784642D01*
X125368570Y-126784642D02*
X125297142Y-126641785D01*
X125297142Y-126641785D02*
X125225713Y-126570357D01*
X125225713Y-126570357D02*
X125082856Y-126498928D01*
X125082856Y-126498928D02*
X124868570Y-126498928D01*
X124868570Y-126498928D02*
X124725713Y-126570357D01*
X124725713Y-126570357D02*
X124654285Y-126641785D01*
X124654285Y-126641785D02*
X124582856Y-126784642D01*
X124582856Y-126784642D02*
X124582856Y-127213214D01*
X124582856Y-127213214D02*
X124654285Y-127356071D01*
X124654285Y-127356071D02*
X124725713Y-127427500D01*
X124725713Y-127427500D02*
X124868570Y-127498928D01*
X124868570Y-127498928D02*
X125082856Y-127498928D01*
X123939999Y-127498928D02*
X123939999Y-126498928D01*
X123939999Y-126784642D02*
X123868570Y-126641785D01*
X123868570Y-126641785D02*
X123797142Y-126570357D01*
X123797142Y-126570357D02*
X123654284Y-126498928D01*
X123654284Y-126498928D02*
X123511427Y-126498928D01*
X123225713Y-126498928D02*
X122654285Y-126498928D01*
X123011428Y-125998928D02*
X123011428Y-127284642D01*
X123011428Y-127284642D02*
X122939999Y-127427500D01*
X122939999Y-127427500D02*
X122797142Y-127498928D01*
X122797142Y-127498928D02*
X122654285Y-127498928D01*
X122297142Y-125998928D02*
X121368570Y-125998928D01*
X121368570Y-125998928D02*
X121868570Y-126570357D01*
X121868570Y-126570357D02*
X121654285Y-126570357D01*
X121654285Y-126570357D02*
X121511428Y-126641785D01*
X121511428Y-126641785D02*
X121439999Y-126713214D01*
X121439999Y-126713214D02*
X121368570Y-126856071D01*
X121368570Y-126856071D02*
X121368570Y-127213214D01*
X121368570Y-127213214D02*
X121439999Y-127356071D01*
X121439999Y-127356071D02*
X121511428Y-127427500D01*
X121511428Y-127427500D02*
X121654285Y-127498928D01*
X121654285Y-127498928D02*
X122082856Y-127498928D01*
X122082856Y-127498928D02*
X122225713Y-127427500D01*
X122225713Y-127427500D02*
X122297142Y-127356071D01*
X117654285Y-126070357D02*
X117797143Y-125998928D01*
X117797143Y-125998928D02*
X118011428Y-125998928D01*
X118011428Y-125998928D02*
X118225714Y-126070357D01*
X118225714Y-126070357D02*
X118368571Y-126213214D01*
X118368571Y-126213214D02*
X118440000Y-126356071D01*
X118440000Y-126356071D02*
X118511428Y-126641785D01*
X118511428Y-126641785D02*
X118511428Y-126856071D01*
X118511428Y-126856071D02*
X118440000Y-127141785D01*
X118440000Y-127141785D02*
X118368571Y-127284642D01*
X118368571Y-127284642D02*
X118225714Y-127427500D01*
X118225714Y-127427500D02*
X118011428Y-127498928D01*
X118011428Y-127498928D02*
X117868571Y-127498928D01*
X117868571Y-127498928D02*
X117654285Y-127427500D01*
X117654285Y-127427500D02*
X117582857Y-127356071D01*
X117582857Y-127356071D02*
X117582857Y-126856071D01*
X117582857Y-126856071D02*
X117868571Y-126856071D01*
X116940000Y-127498928D02*
X116940000Y-125998928D01*
X116940000Y-125998928D02*
X116368571Y-125998928D01*
X116368571Y-125998928D02*
X116225714Y-126070357D01*
X116225714Y-126070357D02*
X116154285Y-126141785D01*
X116154285Y-126141785D02*
X116082857Y-126284642D01*
X116082857Y-126284642D02*
X116082857Y-126498928D01*
X116082857Y-126498928D02*
X116154285Y-126641785D01*
X116154285Y-126641785D02*
X116225714Y-126713214D01*
X116225714Y-126713214D02*
X116368571Y-126784642D01*
X116368571Y-126784642D02*
X116940000Y-126784642D01*
X115440000Y-127498928D02*
X115440000Y-125998928D01*
X114439999Y-125998928D02*
X114154285Y-125998928D01*
X114154285Y-125998928D02*
X114011428Y-126070357D01*
X114011428Y-126070357D02*
X113868571Y-126213214D01*
X113868571Y-126213214D02*
X113797142Y-126498928D01*
X113797142Y-126498928D02*
X113797142Y-126998928D01*
X113797142Y-126998928D02*
X113868571Y-127284642D01*
X113868571Y-127284642D02*
X114011428Y-127427500D01*
X114011428Y-127427500D02*
X114154285Y-127498928D01*
X114154285Y-127498928D02*
X114439999Y-127498928D01*
X114439999Y-127498928D02*
X114582857Y-127427500D01*
X114582857Y-127427500D02*
X114725714Y-127284642D01*
X114725714Y-127284642D02*
X114797142Y-126998928D01*
X114797142Y-126998928D02*
X114797142Y-126498928D01*
X114797142Y-126498928D02*
X114725714Y-126213214D01*
X114725714Y-126213214D02*
X114582857Y-126070357D01*
X114582857Y-126070357D02*
X114439999Y-125998928D01*
X112368570Y-127498928D02*
X113225713Y-127498928D01*
X112797142Y-127498928D02*
X112797142Y-125998928D01*
X112797142Y-125998928D02*
X112939999Y-126213214D01*
X112939999Y-126213214D02*
X113082856Y-126356071D01*
X113082856Y-126356071D02*
X113225713Y-126427500D01*
X111511428Y-126641785D02*
X111654285Y-126570357D01*
X111654285Y-126570357D02*
X111725714Y-126498928D01*
X111725714Y-126498928D02*
X111797142Y-126356071D01*
X111797142Y-126356071D02*
X111797142Y-126284642D01*
X111797142Y-126284642D02*
X111725714Y-126141785D01*
X111725714Y-126141785D02*
X111654285Y-126070357D01*
X111654285Y-126070357D02*
X111511428Y-125998928D01*
X111511428Y-125998928D02*
X111225714Y-125998928D01*
X111225714Y-125998928D02*
X111082857Y-126070357D01*
X111082857Y-126070357D02*
X111011428Y-126141785D01*
X111011428Y-126141785D02*
X110939999Y-126284642D01*
X110939999Y-126284642D02*
X110939999Y-126356071D01*
X110939999Y-126356071D02*
X111011428Y-126498928D01*
X111011428Y-126498928D02*
X111082857Y-126570357D01*
X111082857Y-126570357D02*
X111225714Y-126641785D01*
X111225714Y-126641785D02*
X111511428Y-126641785D01*
X111511428Y-126641785D02*
X111654285Y-126713214D01*
X111654285Y-126713214D02*
X111725714Y-126784642D01*
X111725714Y-126784642D02*
X111797142Y-126927500D01*
X111797142Y-126927500D02*
X111797142Y-127213214D01*
X111797142Y-127213214D02*
X111725714Y-127356071D01*
X111725714Y-127356071D02*
X111654285Y-127427500D01*
X111654285Y-127427500D02*
X111511428Y-127498928D01*
X111511428Y-127498928D02*
X111225714Y-127498928D01*
X111225714Y-127498928D02*
X111082857Y-127427500D01*
X111082857Y-127427500D02*
X111011428Y-127356071D01*
X111011428Y-127356071D02*
X110939999Y-127213214D01*
X110939999Y-127213214D02*
X110939999Y-126927500D01*
X110939999Y-126927500D02*
X111011428Y-126784642D01*
X111011428Y-126784642D02*
X111082857Y-126713214D01*
X111082857Y-126713214D02*
X111225714Y-126641785D01*
X109154286Y-126713214D02*
X108011429Y-126713214D01*
X108011429Y-127141785D02*
X109154286Y-127141785D01*
X106154286Y-127498928D02*
X106154286Y-125998928D01*
X106154286Y-125998928D02*
X105582857Y-125998928D01*
X105582857Y-125998928D02*
X105440000Y-126070357D01*
X105440000Y-126070357D02*
X105368571Y-126141785D01*
X105368571Y-126141785D02*
X105297143Y-126284642D01*
X105297143Y-126284642D02*
X105297143Y-126498928D01*
X105297143Y-126498928D02*
X105368571Y-126641785D01*
X105368571Y-126641785D02*
X105440000Y-126713214D01*
X105440000Y-126713214D02*
X105582857Y-126784642D01*
X105582857Y-126784642D02*
X106154286Y-126784642D01*
X104440000Y-127498928D02*
X104582857Y-127427500D01*
X104582857Y-127427500D02*
X104654286Y-127356071D01*
X104654286Y-127356071D02*
X104725714Y-127213214D01*
X104725714Y-127213214D02*
X104725714Y-126784642D01*
X104725714Y-126784642D02*
X104654286Y-126641785D01*
X104654286Y-126641785D02*
X104582857Y-126570357D01*
X104582857Y-126570357D02*
X104440000Y-126498928D01*
X104440000Y-126498928D02*
X104225714Y-126498928D01*
X104225714Y-126498928D02*
X104082857Y-126570357D01*
X104082857Y-126570357D02*
X104011429Y-126641785D01*
X104011429Y-126641785D02*
X103940000Y-126784642D01*
X103940000Y-126784642D02*
X103940000Y-127213214D01*
X103940000Y-127213214D02*
X104011429Y-127356071D01*
X104011429Y-127356071D02*
X104082857Y-127427500D01*
X104082857Y-127427500D02*
X104225714Y-127498928D01*
X104225714Y-127498928D02*
X104440000Y-127498928D01*
X103297143Y-127498928D02*
X103297143Y-126498928D01*
X103297143Y-126784642D02*
X103225714Y-126641785D01*
X103225714Y-126641785D02*
X103154286Y-126570357D01*
X103154286Y-126570357D02*
X103011428Y-126498928D01*
X103011428Y-126498928D02*
X102868571Y-126498928D01*
X102582857Y-126498928D02*
X102011429Y-126498928D01*
X102368572Y-125998928D02*
X102368572Y-127284642D01*
X102368572Y-127284642D02*
X102297143Y-127427500D01*
X102297143Y-127427500D02*
X102154286Y-127498928D01*
X102154286Y-127498928D02*
X102011429Y-127498928D01*
X101654286Y-125998928D02*
X100654286Y-125998928D01*
X100654286Y-125998928D02*
X101297143Y-127498928D01*
X138297141Y-128500357D02*
X138439999Y-128428928D01*
X138439999Y-128428928D02*
X138654284Y-128428928D01*
X138654284Y-128428928D02*
X138868570Y-128500357D01*
X138868570Y-128500357D02*
X139011427Y-128643214D01*
X139011427Y-128643214D02*
X139082856Y-128786071D01*
X139082856Y-128786071D02*
X139154284Y-129071785D01*
X139154284Y-129071785D02*
X139154284Y-129286071D01*
X139154284Y-129286071D02*
X139082856Y-129571785D01*
X139082856Y-129571785D02*
X139011427Y-129714642D01*
X139011427Y-129714642D02*
X138868570Y-129857500D01*
X138868570Y-129857500D02*
X138654284Y-129928928D01*
X138654284Y-129928928D02*
X138511427Y-129928928D01*
X138511427Y-129928928D02*
X138297141Y-129857500D01*
X138297141Y-129857500D02*
X138225713Y-129786071D01*
X138225713Y-129786071D02*
X138225713Y-129286071D01*
X138225713Y-129286071D02*
X138511427Y-129286071D01*
X137582856Y-129928928D02*
X137582856Y-128428928D01*
X137582856Y-128428928D02*
X137011427Y-128428928D01*
X137011427Y-128428928D02*
X136868570Y-128500357D01*
X136868570Y-128500357D02*
X136797141Y-128571785D01*
X136797141Y-128571785D02*
X136725713Y-128714642D01*
X136725713Y-128714642D02*
X136725713Y-128928928D01*
X136725713Y-128928928D02*
X136797141Y-129071785D01*
X136797141Y-129071785D02*
X136868570Y-129143214D01*
X136868570Y-129143214D02*
X137011427Y-129214642D01*
X137011427Y-129214642D02*
X137582856Y-129214642D01*
X136082856Y-129928928D02*
X136082856Y-128428928D01*
X135082855Y-128428928D02*
X134797141Y-128428928D01*
X134797141Y-128428928D02*
X134654284Y-128500357D01*
X134654284Y-128500357D02*
X134511427Y-128643214D01*
X134511427Y-128643214D02*
X134439998Y-128928928D01*
X134439998Y-128928928D02*
X134439998Y-129428928D01*
X134439998Y-129428928D02*
X134511427Y-129714642D01*
X134511427Y-129714642D02*
X134654284Y-129857500D01*
X134654284Y-129857500D02*
X134797141Y-129928928D01*
X134797141Y-129928928D02*
X135082855Y-129928928D01*
X135082855Y-129928928D02*
X135225713Y-129857500D01*
X135225713Y-129857500D02*
X135368570Y-129714642D01*
X135368570Y-129714642D02*
X135439998Y-129428928D01*
X135439998Y-129428928D02*
X135439998Y-128928928D01*
X135439998Y-128928928D02*
X135368570Y-128643214D01*
X135368570Y-128643214D02*
X135225713Y-128500357D01*
X135225713Y-128500357D02*
X135082855Y-128428928D01*
X133511426Y-128428928D02*
X133368569Y-128428928D01*
X133368569Y-128428928D02*
X133225712Y-128500357D01*
X133225712Y-128500357D02*
X133154284Y-128571785D01*
X133154284Y-128571785D02*
X133082855Y-128714642D01*
X133082855Y-128714642D02*
X133011426Y-129000357D01*
X133011426Y-129000357D02*
X133011426Y-129357500D01*
X133011426Y-129357500D02*
X133082855Y-129643214D01*
X133082855Y-129643214D02*
X133154284Y-129786071D01*
X133154284Y-129786071D02*
X133225712Y-129857500D01*
X133225712Y-129857500D02*
X133368569Y-129928928D01*
X133368569Y-129928928D02*
X133511426Y-129928928D01*
X133511426Y-129928928D02*
X133654284Y-129857500D01*
X133654284Y-129857500D02*
X133725712Y-129786071D01*
X133725712Y-129786071D02*
X133797141Y-129643214D01*
X133797141Y-129643214D02*
X133868569Y-129357500D01*
X133868569Y-129357500D02*
X133868569Y-129000357D01*
X133868569Y-129000357D02*
X133797141Y-128714642D01*
X133797141Y-128714642D02*
X133725712Y-128571785D01*
X133725712Y-128571785D02*
X133654284Y-128500357D01*
X133654284Y-128500357D02*
X133511426Y-128428928D01*
X132439998Y-128571785D02*
X132368570Y-128500357D01*
X132368570Y-128500357D02*
X132225713Y-128428928D01*
X132225713Y-128428928D02*
X131868570Y-128428928D01*
X131868570Y-128428928D02*
X131725713Y-128500357D01*
X131725713Y-128500357D02*
X131654284Y-128571785D01*
X131654284Y-128571785D02*
X131582855Y-128714642D01*
X131582855Y-128714642D02*
X131582855Y-128857500D01*
X131582855Y-128857500D02*
X131654284Y-129071785D01*
X131654284Y-129071785D02*
X132511427Y-129928928D01*
X132511427Y-129928928D02*
X131582855Y-129928928D01*
X129797142Y-129143214D02*
X128654285Y-129143214D01*
X128654285Y-129571785D02*
X129797142Y-129571785D01*
X126797142Y-129928928D02*
X126797142Y-128428928D01*
X126797142Y-128428928D02*
X126225713Y-128428928D01*
X126225713Y-128428928D02*
X126082856Y-128500357D01*
X126082856Y-128500357D02*
X126011427Y-128571785D01*
X126011427Y-128571785D02*
X125939999Y-128714642D01*
X125939999Y-128714642D02*
X125939999Y-128928928D01*
X125939999Y-128928928D02*
X126011427Y-129071785D01*
X126011427Y-129071785D02*
X126082856Y-129143214D01*
X126082856Y-129143214D02*
X126225713Y-129214642D01*
X126225713Y-129214642D02*
X126797142Y-129214642D01*
X125082856Y-129928928D02*
X125225713Y-129857500D01*
X125225713Y-129857500D02*
X125297142Y-129786071D01*
X125297142Y-129786071D02*
X125368570Y-129643214D01*
X125368570Y-129643214D02*
X125368570Y-129214642D01*
X125368570Y-129214642D02*
X125297142Y-129071785D01*
X125297142Y-129071785D02*
X125225713Y-129000357D01*
X125225713Y-129000357D02*
X125082856Y-128928928D01*
X125082856Y-128928928D02*
X124868570Y-128928928D01*
X124868570Y-128928928D02*
X124725713Y-129000357D01*
X124725713Y-129000357D02*
X124654285Y-129071785D01*
X124654285Y-129071785D02*
X124582856Y-129214642D01*
X124582856Y-129214642D02*
X124582856Y-129643214D01*
X124582856Y-129643214D02*
X124654285Y-129786071D01*
X124654285Y-129786071D02*
X124725713Y-129857500D01*
X124725713Y-129857500D02*
X124868570Y-129928928D01*
X124868570Y-129928928D02*
X125082856Y-129928928D01*
X123939999Y-129928928D02*
X123939999Y-128928928D01*
X123939999Y-129214642D02*
X123868570Y-129071785D01*
X123868570Y-129071785D02*
X123797142Y-129000357D01*
X123797142Y-129000357D02*
X123654284Y-128928928D01*
X123654284Y-128928928D02*
X123511427Y-128928928D01*
X123225713Y-128928928D02*
X122654285Y-128928928D01*
X123011428Y-128428928D02*
X123011428Y-129714642D01*
X123011428Y-129714642D02*
X122939999Y-129857500D01*
X122939999Y-129857500D02*
X122797142Y-129928928D01*
X122797142Y-129928928D02*
X122654285Y-129928928D01*
X121511428Y-128928928D02*
X121511428Y-129928928D01*
X121868570Y-128357500D02*
X122225713Y-129428928D01*
X122225713Y-129428928D02*
X121297142Y-129428928D01*
X117654285Y-128500357D02*
X117797143Y-128428928D01*
X117797143Y-128428928D02*
X118011428Y-128428928D01*
X118011428Y-128428928D02*
X118225714Y-128500357D01*
X118225714Y-128500357D02*
X118368571Y-128643214D01*
X118368571Y-128643214D02*
X118440000Y-128786071D01*
X118440000Y-128786071D02*
X118511428Y-129071785D01*
X118511428Y-129071785D02*
X118511428Y-129286071D01*
X118511428Y-129286071D02*
X118440000Y-129571785D01*
X118440000Y-129571785D02*
X118368571Y-129714642D01*
X118368571Y-129714642D02*
X118225714Y-129857500D01*
X118225714Y-129857500D02*
X118011428Y-129928928D01*
X118011428Y-129928928D02*
X117868571Y-129928928D01*
X117868571Y-129928928D02*
X117654285Y-129857500D01*
X117654285Y-129857500D02*
X117582857Y-129786071D01*
X117582857Y-129786071D02*
X117582857Y-129286071D01*
X117582857Y-129286071D02*
X117868571Y-129286071D01*
X116940000Y-129928928D02*
X116940000Y-128428928D01*
X116940000Y-128428928D02*
X116368571Y-128428928D01*
X116368571Y-128428928D02*
X116225714Y-128500357D01*
X116225714Y-128500357D02*
X116154285Y-128571785D01*
X116154285Y-128571785D02*
X116082857Y-128714642D01*
X116082857Y-128714642D02*
X116082857Y-128928928D01*
X116082857Y-128928928D02*
X116154285Y-129071785D01*
X116154285Y-129071785D02*
X116225714Y-129143214D01*
X116225714Y-129143214D02*
X116368571Y-129214642D01*
X116368571Y-129214642D02*
X116940000Y-129214642D01*
X115440000Y-129928928D02*
X115440000Y-128428928D01*
X114439999Y-128428928D02*
X114154285Y-128428928D01*
X114154285Y-128428928D02*
X114011428Y-128500357D01*
X114011428Y-128500357D02*
X113868571Y-128643214D01*
X113868571Y-128643214D02*
X113797142Y-128928928D01*
X113797142Y-128928928D02*
X113797142Y-129428928D01*
X113797142Y-129428928D02*
X113868571Y-129714642D01*
X113868571Y-129714642D02*
X114011428Y-129857500D01*
X114011428Y-129857500D02*
X114154285Y-129928928D01*
X114154285Y-129928928D02*
X114439999Y-129928928D01*
X114439999Y-129928928D02*
X114582857Y-129857500D01*
X114582857Y-129857500D02*
X114725714Y-129714642D01*
X114725714Y-129714642D02*
X114797142Y-129428928D01*
X114797142Y-129428928D02*
X114797142Y-128928928D01*
X114797142Y-128928928D02*
X114725714Y-128643214D01*
X114725714Y-128643214D02*
X114582857Y-128500357D01*
X114582857Y-128500357D02*
X114439999Y-128428928D01*
X113225713Y-128571785D02*
X113154285Y-128500357D01*
X113154285Y-128500357D02*
X113011428Y-128428928D01*
X113011428Y-128428928D02*
X112654285Y-128428928D01*
X112654285Y-128428928D02*
X112511428Y-128500357D01*
X112511428Y-128500357D02*
X112439999Y-128571785D01*
X112439999Y-128571785D02*
X112368570Y-128714642D01*
X112368570Y-128714642D02*
X112368570Y-128857500D01*
X112368570Y-128857500D02*
X112439999Y-129071785D01*
X112439999Y-129071785D02*
X113297142Y-129928928D01*
X113297142Y-129928928D02*
X112368570Y-129928928D01*
X111082857Y-128428928D02*
X111368571Y-128428928D01*
X111368571Y-128428928D02*
X111511428Y-128500357D01*
X111511428Y-128500357D02*
X111582857Y-128571785D01*
X111582857Y-128571785D02*
X111725714Y-128786071D01*
X111725714Y-128786071D02*
X111797142Y-129071785D01*
X111797142Y-129071785D02*
X111797142Y-129643214D01*
X111797142Y-129643214D02*
X111725714Y-129786071D01*
X111725714Y-129786071D02*
X111654285Y-129857500D01*
X111654285Y-129857500D02*
X111511428Y-129928928D01*
X111511428Y-129928928D02*
X111225714Y-129928928D01*
X111225714Y-129928928D02*
X111082857Y-129857500D01*
X111082857Y-129857500D02*
X111011428Y-129786071D01*
X111011428Y-129786071D02*
X110939999Y-129643214D01*
X110939999Y-129643214D02*
X110939999Y-129286071D01*
X110939999Y-129286071D02*
X111011428Y-129143214D01*
X111011428Y-129143214D02*
X111082857Y-129071785D01*
X111082857Y-129071785D02*
X111225714Y-129000357D01*
X111225714Y-129000357D02*
X111511428Y-129000357D01*
X111511428Y-129000357D02*
X111654285Y-129071785D01*
X111654285Y-129071785D02*
X111725714Y-129143214D01*
X111725714Y-129143214D02*
X111797142Y-129286071D01*
X109154286Y-129143214D02*
X108011429Y-129143214D01*
X108011429Y-129571785D02*
X109154286Y-129571785D01*
X106154286Y-129928928D02*
X106154286Y-128428928D01*
X106154286Y-128428928D02*
X105582857Y-128428928D01*
X105582857Y-128428928D02*
X105440000Y-128500357D01*
X105440000Y-128500357D02*
X105368571Y-128571785D01*
X105368571Y-128571785D02*
X105297143Y-128714642D01*
X105297143Y-128714642D02*
X105297143Y-128928928D01*
X105297143Y-128928928D02*
X105368571Y-129071785D01*
X105368571Y-129071785D02*
X105440000Y-129143214D01*
X105440000Y-129143214D02*
X105582857Y-129214642D01*
X105582857Y-129214642D02*
X106154286Y-129214642D01*
X104440000Y-129928928D02*
X104582857Y-129857500D01*
X104582857Y-129857500D02*
X104654286Y-129786071D01*
X104654286Y-129786071D02*
X104725714Y-129643214D01*
X104725714Y-129643214D02*
X104725714Y-129214642D01*
X104725714Y-129214642D02*
X104654286Y-129071785D01*
X104654286Y-129071785D02*
X104582857Y-129000357D01*
X104582857Y-129000357D02*
X104440000Y-128928928D01*
X104440000Y-128928928D02*
X104225714Y-128928928D01*
X104225714Y-128928928D02*
X104082857Y-129000357D01*
X104082857Y-129000357D02*
X104011429Y-129071785D01*
X104011429Y-129071785D02*
X103940000Y-129214642D01*
X103940000Y-129214642D02*
X103940000Y-129643214D01*
X103940000Y-129643214D02*
X104011429Y-129786071D01*
X104011429Y-129786071D02*
X104082857Y-129857500D01*
X104082857Y-129857500D02*
X104225714Y-129928928D01*
X104225714Y-129928928D02*
X104440000Y-129928928D01*
X103297143Y-129928928D02*
X103297143Y-128928928D01*
X103297143Y-129214642D02*
X103225714Y-129071785D01*
X103225714Y-129071785D02*
X103154286Y-129000357D01*
X103154286Y-129000357D02*
X103011428Y-128928928D01*
X103011428Y-128928928D02*
X102868571Y-128928928D01*
X102582857Y-128928928D02*
X102011429Y-128928928D01*
X102368572Y-128428928D02*
X102368572Y-129714642D01*
X102368572Y-129714642D02*
X102297143Y-129857500D01*
X102297143Y-129857500D02*
X102154286Y-129928928D01*
X102154286Y-129928928D02*
X102011429Y-129928928D01*
X101297143Y-129071785D02*
X101440000Y-129000357D01*
X101440000Y-129000357D02*
X101511429Y-128928928D01*
X101511429Y-128928928D02*
X101582857Y-128786071D01*
X101582857Y-128786071D02*
X101582857Y-128714642D01*
X101582857Y-128714642D02*
X101511429Y-128571785D01*
X101511429Y-128571785D02*
X101440000Y-128500357D01*
X101440000Y-128500357D02*
X101297143Y-128428928D01*
X101297143Y-128428928D02*
X101011429Y-128428928D01*
X101011429Y-128428928D02*
X100868572Y-128500357D01*
X100868572Y-128500357D02*
X100797143Y-128571785D01*
X100797143Y-128571785D02*
X100725714Y-128714642D01*
X100725714Y-128714642D02*
X100725714Y-128786071D01*
X100725714Y-128786071D02*
X100797143Y-128928928D01*
X100797143Y-128928928D02*
X100868572Y-129000357D01*
X100868572Y-129000357D02*
X101011429Y-129071785D01*
X101011429Y-129071785D02*
X101297143Y-129071785D01*
X101297143Y-129071785D02*
X101440000Y-129143214D01*
X101440000Y-129143214D02*
X101511429Y-129214642D01*
X101511429Y-129214642D02*
X101582857Y-129357500D01*
X101582857Y-129357500D02*
X101582857Y-129643214D01*
X101582857Y-129643214D02*
X101511429Y-129786071D01*
X101511429Y-129786071D02*
X101440000Y-129857500D01*
X101440000Y-129857500D02*
X101297143Y-129928928D01*
X101297143Y-129928928D02*
X101011429Y-129928928D01*
X101011429Y-129928928D02*
X100868572Y-129857500D01*
X100868572Y-129857500D02*
X100797143Y-129786071D01*
X100797143Y-129786071D02*
X100725714Y-129643214D01*
X100725714Y-129643214D02*
X100725714Y-129357500D01*
X100725714Y-129357500D02*
X100797143Y-129214642D01*
X100797143Y-129214642D02*
X100868572Y-129143214D01*
X100868572Y-129143214D02*
X101011429Y-129071785D01*
X147297141Y-133360357D02*
X147439999Y-133288928D01*
X147439999Y-133288928D02*
X147654284Y-133288928D01*
X147654284Y-133288928D02*
X147868570Y-133360357D01*
X147868570Y-133360357D02*
X148011427Y-133503214D01*
X148011427Y-133503214D02*
X148082856Y-133646071D01*
X148082856Y-133646071D02*
X148154284Y-133931785D01*
X148154284Y-133931785D02*
X148154284Y-134146071D01*
X148154284Y-134146071D02*
X148082856Y-134431785D01*
X148082856Y-134431785D02*
X148011427Y-134574642D01*
X148011427Y-134574642D02*
X147868570Y-134717500D01*
X147868570Y-134717500D02*
X147654284Y-134788928D01*
X147654284Y-134788928D02*
X147511427Y-134788928D01*
X147511427Y-134788928D02*
X147297141Y-134717500D01*
X147297141Y-134717500D02*
X147225713Y-134646071D01*
X147225713Y-134646071D02*
X147225713Y-134146071D01*
X147225713Y-134146071D02*
X147511427Y-134146071D01*
X146582856Y-134788928D02*
X146582856Y-133288928D01*
X146582856Y-133288928D02*
X146011427Y-133288928D01*
X146011427Y-133288928D02*
X145868570Y-133360357D01*
X145868570Y-133360357D02*
X145797141Y-133431785D01*
X145797141Y-133431785D02*
X145725713Y-133574642D01*
X145725713Y-133574642D02*
X145725713Y-133788928D01*
X145725713Y-133788928D02*
X145797141Y-133931785D01*
X145797141Y-133931785D02*
X145868570Y-134003214D01*
X145868570Y-134003214D02*
X146011427Y-134074642D01*
X146011427Y-134074642D02*
X146582856Y-134074642D01*
X145082856Y-134788928D02*
X145082856Y-133288928D01*
X144082855Y-133288928D02*
X143797141Y-133288928D01*
X143797141Y-133288928D02*
X143654284Y-133360357D01*
X143654284Y-133360357D02*
X143511427Y-133503214D01*
X143511427Y-133503214D02*
X143439998Y-133788928D01*
X143439998Y-133788928D02*
X143439998Y-134288928D01*
X143439998Y-134288928D02*
X143511427Y-134574642D01*
X143511427Y-134574642D02*
X143654284Y-134717500D01*
X143654284Y-134717500D02*
X143797141Y-134788928D01*
X143797141Y-134788928D02*
X144082855Y-134788928D01*
X144082855Y-134788928D02*
X144225713Y-134717500D01*
X144225713Y-134717500D02*
X144368570Y-134574642D01*
X144368570Y-134574642D02*
X144439998Y-134288928D01*
X144439998Y-134288928D02*
X144439998Y-133788928D01*
X144439998Y-133788928D02*
X144368570Y-133503214D01*
X144368570Y-133503214D02*
X144225713Y-133360357D01*
X144225713Y-133360357D02*
X144082855Y-133288928D01*
X142011426Y-134788928D02*
X142868569Y-134788928D01*
X142439998Y-134788928D02*
X142439998Y-133288928D01*
X142439998Y-133288928D02*
X142582855Y-133503214D01*
X142582855Y-133503214D02*
X142725712Y-133646071D01*
X142725712Y-133646071D02*
X142868569Y-133717500D01*
X141511427Y-133288928D02*
X140511427Y-133288928D01*
X140511427Y-133288928D02*
X141154284Y-134788928D01*
X138797142Y-134003214D02*
X137654285Y-134003214D01*
X137654285Y-134431785D02*
X138797142Y-134431785D01*
X135297142Y-134003214D02*
X135082856Y-134074642D01*
X135082856Y-134074642D02*
X135011427Y-134146071D01*
X135011427Y-134146071D02*
X134939999Y-134288928D01*
X134939999Y-134288928D02*
X134939999Y-134503214D01*
X134939999Y-134503214D02*
X135011427Y-134646071D01*
X135011427Y-134646071D02*
X135082856Y-134717500D01*
X135082856Y-134717500D02*
X135225713Y-134788928D01*
X135225713Y-134788928D02*
X135797142Y-134788928D01*
X135797142Y-134788928D02*
X135797142Y-133288928D01*
X135797142Y-133288928D02*
X135297142Y-133288928D01*
X135297142Y-133288928D02*
X135154285Y-133360357D01*
X135154285Y-133360357D02*
X135082856Y-133431785D01*
X135082856Y-133431785D02*
X135011427Y-133574642D01*
X135011427Y-133574642D02*
X135011427Y-133717500D01*
X135011427Y-133717500D02*
X135082856Y-133860357D01*
X135082856Y-133860357D02*
X135154285Y-133931785D01*
X135154285Y-133931785D02*
X135297142Y-134003214D01*
X135297142Y-134003214D02*
X135797142Y-134003214D01*
X133654285Y-133788928D02*
X133654285Y-134788928D01*
X134297142Y-133788928D02*
X134297142Y-134574642D01*
X134297142Y-134574642D02*
X134225713Y-134717500D01*
X134225713Y-134717500D02*
X134082856Y-134788928D01*
X134082856Y-134788928D02*
X133868570Y-134788928D01*
X133868570Y-134788928D02*
X133725713Y-134717500D01*
X133725713Y-134717500D02*
X133654285Y-134646071D01*
X133154284Y-133788928D02*
X132582856Y-133788928D01*
X132939999Y-133288928D02*
X132939999Y-134574642D01*
X132939999Y-134574642D02*
X132868570Y-134717500D01*
X132868570Y-134717500D02*
X132725713Y-134788928D01*
X132725713Y-134788928D02*
X132582856Y-134788928D01*
X132297141Y-133788928D02*
X131725713Y-133788928D01*
X132082856Y-133288928D02*
X132082856Y-134574642D01*
X132082856Y-134574642D02*
X132011427Y-134717500D01*
X132011427Y-134717500D02*
X131868570Y-134788928D01*
X131868570Y-134788928D02*
X131725713Y-134788928D01*
X131011427Y-134788928D02*
X131154284Y-134717500D01*
X131154284Y-134717500D02*
X131225713Y-134646071D01*
X131225713Y-134646071D02*
X131297141Y-134503214D01*
X131297141Y-134503214D02*
X131297141Y-134074642D01*
X131297141Y-134074642D02*
X131225713Y-133931785D01*
X131225713Y-133931785D02*
X131154284Y-133860357D01*
X131154284Y-133860357D02*
X131011427Y-133788928D01*
X131011427Y-133788928D02*
X130797141Y-133788928D01*
X130797141Y-133788928D02*
X130654284Y-133860357D01*
X130654284Y-133860357D02*
X130582856Y-133931785D01*
X130582856Y-133931785D02*
X130511427Y-134074642D01*
X130511427Y-134074642D02*
X130511427Y-134503214D01*
X130511427Y-134503214D02*
X130582856Y-134646071D01*
X130582856Y-134646071D02*
X130654284Y-134717500D01*
X130654284Y-134717500D02*
X130797141Y-134788928D01*
X130797141Y-134788928D02*
X131011427Y-134788928D01*
X129868570Y-133788928D02*
X129868570Y-134788928D01*
X129868570Y-133931785D02*
X129797141Y-133860357D01*
X129797141Y-133860357D02*
X129654284Y-133788928D01*
X129654284Y-133788928D02*
X129439998Y-133788928D01*
X129439998Y-133788928D02*
X129297141Y-133860357D01*
X129297141Y-133860357D02*
X129225713Y-134003214D01*
X129225713Y-134003214D02*
X129225713Y-134788928D01*
X125439998Y-133360357D02*
X125582856Y-133288928D01*
X125582856Y-133288928D02*
X125797141Y-133288928D01*
X125797141Y-133288928D02*
X126011427Y-133360357D01*
X126011427Y-133360357D02*
X126154284Y-133503214D01*
X126154284Y-133503214D02*
X126225713Y-133646071D01*
X126225713Y-133646071D02*
X126297141Y-133931785D01*
X126297141Y-133931785D02*
X126297141Y-134146071D01*
X126297141Y-134146071D02*
X126225713Y-134431785D01*
X126225713Y-134431785D02*
X126154284Y-134574642D01*
X126154284Y-134574642D02*
X126011427Y-134717500D01*
X126011427Y-134717500D02*
X125797141Y-134788928D01*
X125797141Y-134788928D02*
X125654284Y-134788928D01*
X125654284Y-134788928D02*
X125439998Y-134717500D01*
X125439998Y-134717500D02*
X125368570Y-134646071D01*
X125368570Y-134646071D02*
X125368570Y-134146071D01*
X125368570Y-134146071D02*
X125654284Y-134146071D01*
X124725713Y-134788928D02*
X124725713Y-133288928D01*
X124725713Y-133288928D02*
X124154284Y-133288928D01*
X124154284Y-133288928D02*
X124011427Y-133360357D01*
X124011427Y-133360357D02*
X123939998Y-133431785D01*
X123939998Y-133431785D02*
X123868570Y-133574642D01*
X123868570Y-133574642D02*
X123868570Y-133788928D01*
X123868570Y-133788928D02*
X123939998Y-133931785D01*
X123939998Y-133931785D02*
X124011427Y-134003214D01*
X124011427Y-134003214D02*
X124154284Y-134074642D01*
X124154284Y-134074642D02*
X124725713Y-134074642D01*
X123225713Y-134788928D02*
X123225713Y-133288928D01*
X122225712Y-133288928D02*
X121939998Y-133288928D01*
X121939998Y-133288928D02*
X121797141Y-133360357D01*
X121797141Y-133360357D02*
X121654284Y-133503214D01*
X121654284Y-133503214D02*
X121582855Y-133788928D01*
X121582855Y-133788928D02*
X121582855Y-134288928D01*
X121582855Y-134288928D02*
X121654284Y-134574642D01*
X121654284Y-134574642D02*
X121797141Y-134717500D01*
X121797141Y-134717500D02*
X121939998Y-134788928D01*
X121939998Y-134788928D02*
X122225712Y-134788928D01*
X122225712Y-134788928D02*
X122368570Y-134717500D01*
X122368570Y-134717500D02*
X122511427Y-134574642D01*
X122511427Y-134574642D02*
X122582855Y-134288928D01*
X122582855Y-134288928D02*
X122582855Y-133788928D01*
X122582855Y-133788928D02*
X122511427Y-133503214D01*
X122511427Y-133503214D02*
X122368570Y-133360357D01*
X122368570Y-133360357D02*
X122225712Y-133288928D01*
X121011426Y-133431785D02*
X120939998Y-133360357D01*
X120939998Y-133360357D02*
X120797141Y-133288928D01*
X120797141Y-133288928D02*
X120439998Y-133288928D01*
X120439998Y-133288928D02*
X120297141Y-133360357D01*
X120297141Y-133360357D02*
X120225712Y-133431785D01*
X120225712Y-133431785D02*
X120154283Y-133574642D01*
X120154283Y-133574642D02*
X120154283Y-133717500D01*
X120154283Y-133717500D02*
X120225712Y-133931785D01*
X120225712Y-133931785D02*
X121082855Y-134788928D01*
X121082855Y-134788928D02*
X120154283Y-134788928D01*
X119582855Y-133431785D02*
X119511427Y-133360357D01*
X119511427Y-133360357D02*
X119368570Y-133288928D01*
X119368570Y-133288928D02*
X119011427Y-133288928D01*
X119011427Y-133288928D02*
X118868570Y-133360357D01*
X118868570Y-133360357D02*
X118797141Y-133431785D01*
X118797141Y-133431785D02*
X118725712Y-133574642D01*
X118725712Y-133574642D02*
X118725712Y-133717500D01*
X118725712Y-133717500D02*
X118797141Y-133931785D01*
X118797141Y-133931785D02*
X119654284Y-134788928D01*
X119654284Y-134788928D02*
X118725712Y-134788928D01*
X116939999Y-134003214D02*
X115797142Y-134003214D01*
X115797142Y-134431785D02*
X116939999Y-134431785D01*
X113082856Y-134788928D02*
X113582856Y-134074642D01*
X113939999Y-134788928D02*
X113939999Y-133288928D01*
X113939999Y-133288928D02*
X113368570Y-133288928D01*
X113368570Y-133288928D02*
X113225713Y-133360357D01*
X113225713Y-133360357D02*
X113154284Y-133431785D01*
X113154284Y-133431785D02*
X113082856Y-133574642D01*
X113082856Y-133574642D02*
X113082856Y-133788928D01*
X113082856Y-133788928D02*
X113154284Y-133931785D01*
X113154284Y-133931785D02*
X113225713Y-134003214D01*
X113225713Y-134003214D02*
X113368570Y-134074642D01*
X113368570Y-134074642D02*
X113939999Y-134074642D01*
X111868570Y-134717500D02*
X112011427Y-134788928D01*
X112011427Y-134788928D02*
X112297142Y-134788928D01*
X112297142Y-134788928D02*
X112439999Y-134717500D01*
X112439999Y-134717500D02*
X112511427Y-134574642D01*
X112511427Y-134574642D02*
X112511427Y-134003214D01*
X112511427Y-134003214D02*
X112439999Y-133860357D01*
X112439999Y-133860357D02*
X112297142Y-133788928D01*
X112297142Y-133788928D02*
X112011427Y-133788928D01*
X112011427Y-133788928D02*
X111868570Y-133860357D01*
X111868570Y-133860357D02*
X111797142Y-134003214D01*
X111797142Y-134003214D02*
X111797142Y-134146071D01*
X111797142Y-134146071D02*
X112511427Y-134288928D01*
X110939999Y-134788928D02*
X111082856Y-134717500D01*
X111082856Y-134717500D02*
X111154285Y-134574642D01*
X111154285Y-134574642D02*
X111154285Y-133288928D01*
X109725714Y-134788928D02*
X109725714Y-134003214D01*
X109725714Y-134003214D02*
X109797142Y-133860357D01*
X109797142Y-133860357D02*
X109939999Y-133788928D01*
X109939999Y-133788928D02*
X110225714Y-133788928D01*
X110225714Y-133788928D02*
X110368571Y-133860357D01*
X109725714Y-134717500D02*
X109868571Y-134788928D01*
X109868571Y-134788928D02*
X110225714Y-134788928D01*
X110225714Y-134788928D02*
X110368571Y-134717500D01*
X110368571Y-134717500D02*
X110439999Y-134574642D01*
X110439999Y-134574642D02*
X110439999Y-134431785D01*
X110439999Y-134431785D02*
X110368571Y-134288928D01*
X110368571Y-134288928D02*
X110225714Y-134217500D01*
X110225714Y-134217500D02*
X109868571Y-134217500D01*
X109868571Y-134217500D02*
X109725714Y-134146071D01*
X109154285Y-133788928D02*
X108797142Y-134788928D01*
X108439999Y-133788928D02*
X108797142Y-134788928D01*
X108797142Y-134788928D02*
X108939999Y-135146071D01*
X108939999Y-135146071D02*
X109011428Y-135217500D01*
X109011428Y-135217500D02*
X109154285Y-135288928D01*
X105939999Y-133360357D02*
X106082857Y-133288928D01*
X106082857Y-133288928D02*
X106297142Y-133288928D01*
X106297142Y-133288928D02*
X106511428Y-133360357D01*
X106511428Y-133360357D02*
X106654285Y-133503214D01*
X106654285Y-133503214D02*
X106725714Y-133646071D01*
X106725714Y-133646071D02*
X106797142Y-133931785D01*
X106797142Y-133931785D02*
X106797142Y-134146071D01*
X106797142Y-134146071D02*
X106725714Y-134431785D01*
X106725714Y-134431785D02*
X106654285Y-134574642D01*
X106654285Y-134574642D02*
X106511428Y-134717500D01*
X106511428Y-134717500D02*
X106297142Y-134788928D01*
X106297142Y-134788928D02*
X106154285Y-134788928D01*
X106154285Y-134788928D02*
X105939999Y-134717500D01*
X105939999Y-134717500D02*
X105868571Y-134646071D01*
X105868571Y-134646071D02*
X105868571Y-134146071D01*
X105868571Y-134146071D02*
X106154285Y-134146071D01*
X105225714Y-134788928D02*
X105225714Y-133288928D01*
X105225714Y-133288928D02*
X104654285Y-133288928D01*
X104654285Y-133288928D02*
X104511428Y-133360357D01*
X104511428Y-133360357D02*
X104439999Y-133431785D01*
X104439999Y-133431785D02*
X104368571Y-133574642D01*
X104368571Y-133574642D02*
X104368571Y-133788928D01*
X104368571Y-133788928D02*
X104439999Y-133931785D01*
X104439999Y-133931785D02*
X104511428Y-134003214D01*
X104511428Y-134003214D02*
X104654285Y-134074642D01*
X104654285Y-134074642D02*
X105225714Y-134074642D01*
X103725714Y-134788928D02*
X103725714Y-133288928D01*
X102725713Y-133288928D02*
X102439999Y-133288928D01*
X102439999Y-133288928D02*
X102297142Y-133360357D01*
X102297142Y-133360357D02*
X102154285Y-133503214D01*
X102154285Y-133503214D02*
X102082856Y-133788928D01*
X102082856Y-133788928D02*
X102082856Y-134288928D01*
X102082856Y-134288928D02*
X102154285Y-134574642D01*
X102154285Y-134574642D02*
X102297142Y-134717500D01*
X102297142Y-134717500D02*
X102439999Y-134788928D01*
X102439999Y-134788928D02*
X102725713Y-134788928D01*
X102725713Y-134788928D02*
X102868571Y-134717500D01*
X102868571Y-134717500D02*
X103011428Y-134574642D01*
X103011428Y-134574642D02*
X103082856Y-134288928D01*
X103082856Y-134288928D02*
X103082856Y-133788928D01*
X103082856Y-133788928D02*
X103011428Y-133503214D01*
X103011428Y-133503214D02*
X102868571Y-133360357D01*
X102868571Y-133360357D02*
X102725713Y-133288928D01*
X101511427Y-133431785D02*
X101439999Y-133360357D01*
X101439999Y-133360357D02*
X101297142Y-133288928D01*
X101297142Y-133288928D02*
X100939999Y-133288928D01*
X100939999Y-133288928D02*
X100797142Y-133360357D01*
X100797142Y-133360357D02*
X100725713Y-133431785D01*
X100725713Y-133431785D02*
X100654284Y-133574642D01*
X100654284Y-133574642D02*
X100654284Y-133717500D01*
X100654284Y-133717500D02*
X100725713Y-133931785D01*
X100725713Y-133931785D02*
X101582856Y-134788928D01*
X101582856Y-134788928D02*
X100654284Y-134788928D01*
X99225713Y-134788928D02*
X100082856Y-134788928D01*
X99654285Y-134788928D02*
X99654285Y-133288928D01*
X99654285Y-133288928D02*
X99797142Y-133503214D01*
X99797142Y-133503214D02*
X99939999Y-133646071D01*
X99939999Y-133646071D02*
X100082856Y-133717500D01*
X97440000Y-134003214D02*
X96297143Y-134003214D01*
X96297143Y-134431785D02*
X97440000Y-134431785D01*
X94440000Y-134788928D02*
X94440000Y-133288928D01*
X92868571Y-134788928D02*
X93368571Y-134074642D01*
X93725714Y-134788928D02*
X93725714Y-133288928D01*
X93725714Y-133288928D02*
X93154285Y-133288928D01*
X93154285Y-133288928D02*
X93011428Y-133360357D01*
X93011428Y-133360357D02*
X92939999Y-133431785D01*
X92939999Y-133431785D02*
X92868571Y-133574642D01*
X92868571Y-133574642D02*
X92868571Y-133788928D01*
X92868571Y-133788928D02*
X92939999Y-133931785D01*
X92939999Y-133931785D02*
X93011428Y-134003214D01*
X93011428Y-134003214D02*
X93154285Y-134074642D01*
X93154285Y-134074642D02*
X93725714Y-134074642D01*
%LPC*%
D12*
X155702000Y-128214000D03*
D13*
X155702000Y-124714000D03*
D12*
X173482000Y-128214000D03*
D13*
X173482000Y-124714000D03*
D14*
X155956000Y-129928000D03*
D15*
X155956000Y-122428000D03*
D14*
X173482000Y-129928000D03*
D15*
X173482000Y-122428000D03*
D16*
X163576000Y-87884000D03*
D17*
X163576000Y-86614000D03*
X163576000Y-85344000D03*
D18*
X143764000Y-127508000D03*
D19*
X143764000Y-124968000D03*
X110370000Y-92350000D03*
X110370000Y-94890000D03*
X110370000Y-97430000D03*
X110370000Y-99970000D03*
D18*
X110370000Y-102510000D03*
X116103000Y-92212000D03*
D19*
X116103000Y-94752000D03*
X116103000Y-97292000D03*
X116103000Y-99832000D03*
D18*
X148844000Y-112268000D03*
D19*
X146304000Y-112268000D03*
D20*
X109728000Y-83303000D03*
D21*
X112268000Y-83303000D03*
X114808000Y-83303000D03*
D22*
X119524000Y-117562000D03*
X107024000Y-117562000D03*
X119524000Y-112562000D03*
X107024000Y-112562000D03*
D23*
X156718000Y-80518000D03*
D13*
X169418000Y-80518000D03*
D24*
X163926000Y-95528000D03*
D25*
X157876000Y-97478000D03*
D24*
X157876000Y-109678000D03*
X169926000Y-109728000D03*
D25*
X169876000Y-97478000D03*
D26*
X90424000Y-81586000D03*
X90424000Y-86586000D03*
X90424000Y-91586000D03*
X90424000Y-96586000D03*
X90424000Y-101586000D03*
X90424000Y-106586000D03*
X90424000Y-111586000D03*
X90424000Y-116586000D03*
X90424000Y-121586000D03*
X90424000Y-126586000D03*
X90424000Y-131586000D03*
D27*
X90424000Y-136586000D03*
D26*
X190500000Y-136680000D03*
X190500000Y-131680000D03*
X190500000Y-126680000D03*
X190500000Y-121680000D03*
X190500000Y-116680000D03*
X190500000Y-111680000D03*
X190500000Y-106680000D03*
X190500000Y-101680000D03*
X190500000Y-96680000D03*
X190500000Y-91680000D03*
X190500000Y-86680000D03*
D27*
X190500000Y-81680000D03*
D28*
X168656000Y-91948000D03*
D29*
X158496000Y-91948000D03*
D30*
X124460000Y-78740000D03*
X121920000Y-78740000D03*
X121920000Y-81280000D03*
X124460000Y-81280000D03*
X121920000Y-83820000D03*
X124460000Y-83820000D03*
X121920000Y-86360000D03*
X124460000Y-86360000D03*
X121920000Y-88900000D03*
X124460000Y-88900000D03*
X121920000Y-91440000D03*
X124460000Y-91440000D03*
X121920000Y-93980000D03*
X124460000Y-93980000D03*
X121920000Y-96520000D03*
X124460000Y-96520000D03*
X121920000Y-99060000D03*
X124460000Y-99060000D03*
X121920000Y-101600000D03*
X124460000Y-101600000D03*
X147320000Y-78740000D03*
X149860000Y-78740000D03*
X147320000Y-81280000D03*
X149860000Y-81280000D03*
X147320000Y-83820000D03*
X149860000Y-83820000D03*
X147320000Y-86360000D03*
X149860000Y-86360000D03*
X147320000Y-88900000D03*
X149860000Y-88900000D03*
X147320000Y-91440000D03*
X149860000Y-91440000D03*
X147320000Y-93980000D03*
X149860000Y-93980000D03*
X147320000Y-96520000D03*
X149860000Y-96520000D03*
X147320000Y-99060000D03*
X149860000Y-99060000D03*
X147320000Y-101600000D03*
X149860000Y-101600000D03*
D31*
X198035000Y-81280000D03*
X198803845Y-79423845D03*
X198803845Y-83136155D03*
X200660000Y-78655000D03*
D32*
X200660000Y-81280000D03*
X200660000Y-81280000D03*
D31*
X200660000Y-83905000D03*
X202516155Y-79423845D03*
X202516155Y-83136155D03*
X203285000Y-81280000D03*
X77385000Y-135297000D03*
X78153845Y-133440845D03*
X78153845Y-137153155D03*
X80010000Y-132672000D03*
D32*
X80010000Y-135297000D03*
X80010000Y-135297000D03*
D31*
X80010000Y-137922000D03*
X81866155Y-133440845D03*
X81866155Y-137153155D03*
X82635000Y-135297000D03*
X77385000Y-81280000D03*
X78153845Y-79423845D03*
X78153845Y-83136155D03*
X80010000Y-78655000D03*
D32*
X80010000Y-81280000D03*
X80010000Y-81280000D03*
D31*
X80010000Y-83905000D03*
X81866155Y-79423845D03*
X81866155Y-83136155D03*
X82635000Y-81280000D03*
X198210845Y-135303845D03*
X198979690Y-133447690D03*
X198979690Y-137160000D03*
X200835845Y-132678845D03*
D32*
X200835845Y-135303845D03*
X200835845Y-135303845D03*
D31*
X200835845Y-137928845D03*
X202692000Y-133447690D03*
X202692000Y-137160000D03*
X203460845Y-135303845D03*
%LPD*%
M02*
