G04 #@! TF.GenerationSoftware,KiCad,Pcbnew,7.0.2-6a45011f42~172~ubuntu22.04.1*
G04 #@! TF.CreationDate,2023-05-15T00:50:54+02:00*
G04 #@! TF.ProjectId,ESP32_mini_8Port_WLED,45535033-325f-46d6-996e-695f38506f72,rev?*
G04 #@! TF.SameCoordinates,Original*
G04 #@! TF.FileFunction,Soldermask,Bot*
G04 #@! TF.FilePolarity,Negative*
%FSLAX46Y46*%
G04 Gerber Fmt 4.6, Leading zero omitted, Abs format (unit mm)*
G04 Created by KiCad (PCBNEW 7.0.2-6a45011f42~172~ubuntu22.04.1) date 2023-05-15 00:50:54*
%MOMM*%
%LPD*%
G01*
G04 APERTURE LIST*
G04 Aperture macros list*
%AMRoundRect*
0 Rectangle with rounded corners*
0 $1 Rounding radius*
0 $2 $3 $4 $5 $6 $7 $8 $9 X,Y pos of 4 corners*
0 Add a 4 corners polygon primitive as box body*
4,1,4,$2,$3,$4,$5,$6,$7,$8,$9,$2,$3,0*
0 Add four circle primitives for the rounded corners*
1,1,$1+$1,$2,$3*
1,1,$1+$1,$4,$5*
1,1,$1+$1,$6,$7*
1,1,$1+$1,$8,$9*
0 Add four rect primitives between the rounded corners*
20,1,$1+$1,$2,$3,$4,$5,0*
20,1,$1+$1,$4,$5,$6,$7,0*
20,1,$1+$1,$6,$7,$8,$9,0*
20,1,$1+$1,$8,$9,$2,$3,0*%
G04 Aperture macros list end*
%ADD10R,1.600000X1.600000*%
%ADD11C,1.600000*%
%ADD12R,2.400000X2.400000*%
%ADD13C,2.400000*%
%ADD14R,1.500000X1.050000*%
%ADD15RoundRect,0.262500X0.487500X-0.262500X0.487500X0.262500X-0.487500X0.262500X-0.487500X-0.262500X0*%
%ADD16R,1.700000X1.700000*%
%ADD17O,1.700000X1.700000*%
%ADD18RoundRect,0.250200X-0.649800X-0.649800X0.649800X-0.649800X0.649800X0.649800X-0.649800X0.649800X0*%
%ADD19C,1.800000*%
%ADD20O,3.048000X1.850000*%
%ADD21O,1.600000X1.600000*%
%ADD22C,3.000000*%
%ADD23C,2.500000*%
%ADD24C,2.100000*%
%ADD25R,2.100000X2.100000*%
%ADD26R,2.200000X2.200000*%
%ADD27O,2.200000X2.200000*%
%ADD28C,1.400000*%
%ADD29C,0.800000*%
%ADD30C,7.000000*%
G04 APERTURE END LIST*
D10*
X155702000Y-128214000D03*
D11*
X155702000Y-124714000D03*
D10*
X173482000Y-128214000D03*
D11*
X173482000Y-124714000D03*
D12*
X155956000Y-129928000D03*
D13*
X155956000Y-122428000D03*
D12*
X173482000Y-129928000D03*
D13*
X173482000Y-122428000D03*
D14*
X163576000Y-87884000D03*
D15*
X163576000Y-86614000D03*
X163576000Y-85344000D03*
D16*
X143764000Y-127508000D03*
D17*
X143764000Y-124968000D03*
X110370000Y-92350000D03*
X110370000Y-94890000D03*
X110370000Y-97430000D03*
X110370000Y-99970000D03*
D16*
X110370000Y-102510000D03*
X116103000Y-92212000D03*
D17*
X116103000Y-94752000D03*
X116103000Y-97292000D03*
X116103000Y-99832000D03*
D16*
X148844000Y-112268000D03*
D17*
X146304000Y-112268000D03*
D18*
X109728000Y-83303000D03*
D19*
X112268000Y-83303000D03*
X114808000Y-83303000D03*
D20*
X119524000Y-117562000D03*
X107024000Y-117562000D03*
X119524000Y-112562000D03*
X107024000Y-112562000D03*
D21*
X156718000Y-80518000D03*
D11*
X169418000Y-80518000D03*
D22*
X163926000Y-95528000D03*
D23*
X157876000Y-97478000D03*
D22*
X157876000Y-109678000D03*
X169926000Y-109728000D03*
D23*
X169876000Y-97478000D03*
D24*
X90424000Y-81586000D03*
X90424000Y-86586000D03*
X90424000Y-91586000D03*
X90424000Y-96586000D03*
X90424000Y-101586000D03*
X90424000Y-106586000D03*
X90424000Y-111586000D03*
X90424000Y-116586000D03*
X90424000Y-121586000D03*
X90424000Y-126586000D03*
X90424000Y-131586000D03*
D25*
X90424000Y-136586000D03*
D24*
X190500000Y-136680000D03*
X190500000Y-131680000D03*
X190500000Y-126680000D03*
X190500000Y-121680000D03*
X190500000Y-116680000D03*
X190500000Y-111680000D03*
X190500000Y-106680000D03*
X190500000Y-101680000D03*
X190500000Y-96680000D03*
X190500000Y-91680000D03*
X190500000Y-86680000D03*
D25*
X190500000Y-81680000D03*
D26*
X168656000Y-91948000D03*
D27*
X158496000Y-91948000D03*
D28*
X124460000Y-78740000D03*
X121920000Y-78740000D03*
X121920000Y-81280000D03*
X124460000Y-81280000D03*
X121920000Y-83820000D03*
X124460000Y-83820000D03*
X121920000Y-86360000D03*
X124460000Y-86360000D03*
X121920000Y-88900000D03*
X124460000Y-88900000D03*
X121920000Y-91440000D03*
X124460000Y-91440000D03*
X121920000Y-93980000D03*
X124460000Y-93980000D03*
X121920000Y-96520000D03*
X124460000Y-96520000D03*
X121920000Y-99060000D03*
X124460000Y-99060000D03*
X121920000Y-101600000D03*
X124460000Y-101600000D03*
X147320000Y-78740000D03*
X149860000Y-78740000D03*
X147320000Y-81280000D03*
X149860000Y-81280000D03*
X147320000Y-83820000D03*
X149860000Y-83820000D03*
X147320000Y-86360000D03*
X149860000Y-86360000D03*
X147320000Y-88900000D03*
X149860000Y-88900000D03*
X147320000Y-91440000D03*
X149860000Y-91440000D03*
X147320000Y-93980000D03*
X149860000Y-93980000D03*
X147320000Y-96520000D03*
X149860000Y-96520000D03*
X147320000Y-99060000D03*
X149860000Y-99060000D03*
X147320000Y-101600000D03*
X149860000Y-101600000D03*
D29*
X198035000Y-81280000D03*
X198803845Y-79423845D03*
X198803845Y-83136155D03*
X200660000Y-78655000D03*
D30*
X200660000Y-81280000D03*
X200660000Y-81280000D03*
D29*
X200660000Y-83905000D03*
X202516155Y-79423845D03*
X202516155Y-83136155D03*
X203285000Y-81280000D03*
X77385000Y-135297000D03*
X78153845Y-133440845D03*
X78153845Y-137153155D03*
X80010000Y-132672000D03*
D30*
X80010000Y-135297000D03*
X80010000Y-135297000D03*
D29*
X80010000Y-137922000D03*
X81866155Y-133440845D03*
X81866155Y-137153155D03*
X82635000Y-135297000D03*
X77385000Y-81280000D03*
X78153845Y-79423845D03*
X78153845Y-83136155D03*
X80010000Y-78655000D03*
D30*
X80010000Y-81280000D03*
X80010000Y-81280000D03*
D29*
X80010000Y-83905000D03*
X81866155Y-79423845D03*
X81866155Y-83136155D03*
X82635000Y-81280000D03*
X198210845Y-135303845D03*
X198979690Y-133447690D03*
X198979690Y-137160000D03*
X200835845Y-132678845D03*
D30*
X200835845Y-135303845D03*
X200835845Y-135303845D03*
D29*
X200835845Y-137928845D03*
X202692000Y-133447690D03*
X202692000Y-137160000D03*
X203460845Y-135303845D03*
M02*
