G04 #@! TF.GenerationSoftware,KiCad,Pcbnew,7.0.2-6a45011f42~172~ubuntu22.04.1*
G04 #@! TF.CreationDate,2023-05-15T00:50:54+02:00*
G04 #@! TF.ProjectId,ESP32_mini_8Port_WLED,45535033-325f-46d6-996e-695f38506f72,rev?*
G04 #@! TF.SameCoordinates,Original*
G04 #@! TF.FileFunction,Copper,L2,Bot*
G04 #@! TF.FilePolarity,Positive*
%FSLAX46Y46*%
G04 Gerber Fmt 4.6, Leading zero omitted, Abs format (unit mm)*
G04 Created by KiCad (PCBNEW 7.0.2-6a45011f42~172~ubuntu22.04.1) date 2023-05-15 00:50:54*
%MOMM*%
%LPD*%
G01*
G04 APERTURE LIST*
G04 Aperture macros list*
%AMRoundRect*
0 Rectangle with rounded corners*
0 $1 Rounding radius*
0 $2 $3 $4 $5 $6 $7 $8 $9 X,Y pos of 4 corners*
0 Add a 4 corners polygon primitive as box body*
4,1,4,$2,$3,$4,$5,$6,$7,$8,$9,$2,$3,0*
0 Add four circle primitives for the rounded corners*
1,1,$1+$1,$2,$3*
1,1,$1+$1,$4,$5*
1,1,$1+$1,$6,$7*
1,1,$1+$1,$8,$9*
0 Add four rect primitives between the rounded corners*
20,1,$1+$1,$2,$3,$4,$5,0*
20,1,$1+$1,$4,$5,$6,$7,0*
20,1,$1+$1,$6,$7,$8,$9,0*
20,1,$1+$1,$8,$9,$2,$3,0*%
G04 Aperture macros list end*
G04 #@! TA.AperFunction,ComponentPad*
%ADD10R,1.600000X1.600000*%
G04 #@! TD*
G04 #@! TA.AperFunction,ComponentPad*
%ADD11C,1.600000*%
G04 #@! TD*
G04 #@! TA.AperFunction,ComponentPad*
%ADD12R,2.400000X2.400000*%
G04 #@! TD*
G04 #@! TA.AperFunction,ComponentPad*
%ADD13C,2.400000*%
G04 #@! TD*
G04 #@! TA.AperFunction,ComponentPad*
%ADD14R,1.500000X1.050000*%
G04 #@! TD*
G04 #@! TA.AperFunction,ComponentPad*
%ADD15RoundRect,0.262500X0.487500X-0.262500X0.487500X0.262500X-0.487500X0.262500X-0.487500X-0.262500X0*%
G04 #@! TD*
G04 #@! TA.AperFunction,ComponentPad*
%ADD16R,1.700000X1.700000*%
G04 #@! TD*
G04 #@! TA.AperFunction,ComponentPad*
%ADD17O,1.700000X1.700000*%
G04 #@! TD*
G04 #@! TA.AperFunction,ComponentPad*
%ADD18RoundRect,0.250200X-0.649800X-0.649800X0.649800X-0.649800X0.649800X0.649800X-0.649800X0.649800X0*%
G04 #@! TD*
G04 #@! TA.AperFunction,ComponentPad*
%ADD19C,1.800000*%
G04 #@! TD*
G04 #@! TA.AperFunction,ComponentPad*
%ADD20O,3.048000X1.850000*%
G04 #@! TD*
G04 #@! TA.AperFunction,ComponentPad*
%ADD21O,1.600000X1.600000*%
G04 #@! TD*
G04 #@! TA.AperFunction,ComponentPad*
%ADD22C,3.000000*%
G04 #@! TD*
G04 #@! TA.AperFunction,ComponentPad*
%ADD23C,2.500000*%
G04 #@! TD*
G04 #@! TA.AperFunction,ComponentPad*
%ADD24C,2.100000*%
G04 #@! TD*
G04 #@! TA.AperFunction,ComponentPad*
%ADD25R,2.100000X2.100000*%
G04 #@! TD*
G04 #@! TA.AperFunction,ComponentPad*
%ADD26R,2.200000X2.200000*%
G04 #@! TD*
G04 #@! TA.AperFunction,ComponentPad*
%ADD27O,2.200000X2.200000*%
G04 #@! TD*
G04 #@! TA.AperFunction,ComponentPad*
%ADD28C,1.400000*%
G04 #@! TD*
G04 #@! TA.AperFunction,ComponentPad*
%ADD29C,0.800000*%
G04 #@! TD*
G04 #@! TA.AperFunction,ComponentPad*
%ADD30C,7.000000*%
G04 #@! TD*
G04 #@! TA.AperFunction,ViaPad*
%ADD31C,0.500000*%
G04 #@! TD*
G04 #@! TA.AperFunction,ViaPad*
%ADD32C,1.000000*%
G04 #@! TD*
G04 #@! TA.AperFunction,ViaPad*
%ADD33C,2.000000*%
G04 #@! TD*
G04 #@! TA.AperFunction,Conductor*
%ADD34C,0.500000*%
G04 #@! TD*
G04 #@! TA.AperFunction,Conductor*
%ADD35C,0.250000*%
G04 #@! TD*
G04 #@! TA.AperFunction,Conductor*
%ADD36C,1.000000*%
G04 #@! TD*
G04 #@! TA.AperFunction,Conductor*
%ADD37C,2.000000*%
G04 #@! TD*
G04 APERTURE END LIST*
D10*
X155702000Y-128214000D03*
D11*
X155702000Y-124714000D03*
D10*
X173482000Y-128214000D03*
D11*
X173482000Y-124714000D03*
D12*
X155956000Y-129928000D03*
D13*
X155956000Y-122428000D03*
D12*
X173482000Y-129928000D03*
D13*
X173482000Y-122428000D03*
D14*
X163576000Y-87884000D03*
D15*
X163576000Y-86614000D03*
X163576000Y-85344000D03*
D16*
X143764000Y-127508000D03*
D17*
X143764000Y-124968000D03*
X110370000Y-92350000D03*
X110370000Y-94890000D03*
X110370000Y-97430000D03*
X110370000Y-99970000D03*
D16*
X110370000Y-102510000D03*
X116103000Y-92212000D03*
D17*
X116103000Y-94752000D03*
X116103000Y-97292000D03*
X116103000Y-99832000D03*
D16*
X148844000Y-112268000D03*
D17*
X146304000Y-112268000D03*
D18*
X109728000Y-83303000D03*
D19*
X112268000Y-83303000D03*
X114808000Y-83303000D03*
D20*
X119524000Y-117562000D03*
X107024000Y-117562000D03*
X119524000Y-112562000D03*
X107024000Y-112562000D03*
D21*
X156718000Y-80518000D03*
D11*
X169418000Y-80518000D03*
D22*
X163926000Y-95528000D03*
D23*
X157876000Y-97478000D03*
D22*
X157876000Y-109678000D03*
X169926000Y-109728000D03*
D23*
X169876000Y-97478000D03*
D24*
X90424000Y-81586000D03*
X90424000Y-86586000D03*
X90424000Y-91586000D03*
X90424000Y-96586000D03*
X90424000Y-101586000D03*
X90424000Y-106586000D03*
X90424000Y-111586000D03*
X90424000Y-116586000D03*
X90424000Y-121586000D03*
X90424000Y-126586000D03*
X90424000Y-131586000D03*
D25*
X90424000Y-136586000D03*
D24*
X190500000Y-136680000D03*
X190500000Y-131680000D03*
X190500000Y-126680000D03*
X190500000Y-121680000D03*
X190500000Y-116680000D03*
X190500000Y-111680000D03*
X190500000Y-106680000D03*
X190500000Y-101680000D03*
X190500000Y-96680000D03*
X190500000Y-91680000D03*
X190500000Y-86680000D03*
D25*
X190500000Y-81680000D03*
D26*
X168656000Y-91948000D03*
D27*
X158496000Y-91948000D03*
D28*
X124460000Y-78740000D03*
X121920000Y-78740000D03*
X121920000Y-81280000D03*
X124460000Y-81280000D03*
X121920000Y-83820000D03*
X124460000Y-83820000D03*
X121920000Y-86360000D03*
X124460000Y-86360000D03*
X121920000Y-88900000D03*
X124460000Y-88900000D03*
X121920000Y-91440000D03*
X124460000Y-91440000D03*
X121920000Y-93980000D03*
X124460000Y-93980000D03*
X121920000Y-96520000D03*
X124460000Y-96520000D03*
X121920000Y-99060000D03*
X124460000Y-99060000D03*
X121920000Y-101600000D03*
X124460000Y-101600000D03*
X147320000Y-78740000D03*
X149860000Y-78740000D03*
X147320000Y-81280000D03*
X149860000Y-81280000D03*
X147320000Y-83820000D03*
X149860000Y-83820000D03*
X147320000Y-86360000D03*
X149860000Y-86360000D03*
X147320000Y-88900000D03*
X149860000Y-88900000D03*
X147320000Y-91440000D03*
X149860000Y-91440000D03*
X147320000Y-93980000D03*
X149860000Y-93980000D03*
X147320000Y-96520000D03*
X149860000Y-96520000D03*
X147320000Y-99060000D03*
X149860000Y-99060000D03*
X147320000Y-101600000D03*
X149860000Y-101600000D03*
D29*
X198035000Y-81280000D03*
X198803845Y-79423845D03*
X198803845Y-83136155D03*
X200660000Y-78655000D03*
D30*
X200660000Y-81280000D03*
X200660000Y-81280000D03*
D29*
X200660000Y-83905000D03*
X202516155Y-79423845D03*
X202516155Y-83136155D03*
X203285000Y-81280000D03*
X77385000Y-135297000D03*
X78153845Y-133440845D03*
X78153845Y-137153155D03*
X80010000Y-132672000D03*
D30*
X80010000Y-135297000D03*
X80010000Y-135297000D03*
D29*
X80010000Y-137922000D03*
X81866155Y-133440845D03*
X81866155Y-137153155D03*
X82635000Y-135297000D03*
X77385000Y-81280000D03*
X78153845Y-79423845D03*
X78153845Y-83136155D03*
X80010000Y-78655000D03*
D30*
X80010000Y-81280000D03*
X80010000Y-81280000D03*
D29*
X80010000Y-83905000D03*
X81866155Y-79423845D03*
X81866155Y-83136155D03*
X82635000Y-81280000D03*
X198210845Y-135303845D03*
X198979690Y-133447690D03*
X198979690Y-137160000D03*
X200835845Y-132678845D03*
D30*
X200835845Y-135303845D03*
X200835845Y-135303845D03*
D29*
X200835845Y-137928845D03*
X202692000Y-133447690D03*
X202692000Y-137160000D03*
X203460845Y-135303845D03*
D31*
X110450000Y-114430000D03*
X113540000Y-112620000D03*
D32*
X183896000Y-87884000D03*
D31*
X176784000Y-87884000D03*
X113100000Y-90125000D03*
D33*
X119360000Y-137170000D03*
D32*
X183388000Y-103886000D03*
D31*
X100675000Y-105825000D03*
D32*
X102870000Y-96520000D03*
X102870000Y-104394000D03*
D31*
X176784000Y-79756000D03*
X100400000Y-90225000D03*
D32*
X102870000Y-80264000D03*
D31*
X176784000Y-103886000D03*
X130825000Y-86125000D03*
D33*
X98900000Y-137175000D03*
X104140000Y-124968000D03*
D31*
X112575000Y-89350000D03*
D32*
X183896000Y-79756000D03*
D31*
X100450000Y-98175000D03*
D32*
X183896000Y-95758000D03*
X102870000Y-88392000D03*
D31*
X100450000Y-81975000D03*
X176784000Y-96012000D03*
D34*
X113540000Y-112620000D02*
X112260000Y-112620000D01*
X112260000Y-112620000D02*
X110450000Y-114430000D01*
X110370000Y-99970000D02*
X115965000Y-99970000D01*
D35*
X115965000Y-99970000D02*
X116103000Y-99832000D01*
D34*
X109735000Y-90735000D02*
X110375000Y-91375000D01*
D35*
X110375000Y-91375000D02*
X110375000Y-92260000D01*
D34*
X109735000Y-83085000D02*
X109735000Y-90735000D01*
X114310000Y-88325000D02*
X110375000Y-92260000D01*
X145542000Y-89662000D02*
X147320000Y-91440000D01*
X162306000Y-87884000D02*
X158496000Y-91694000D01*
D36*
X183896000Y-103378000D02*
X183388000Y-103886000D01*
D37*
X90424000Y-101440000D02*
X90424000Y-106440000D01*
D36*
X183896000Y-101600000D02*
X183976000Y-101520000D01*
D37*
X119355000Y-137175000D02*
X119360000Y-137170000D01*
D34*
X175768000Y-91440000D02*
X175768000Y-102870000D01*
X97134000Y-98150000D02*
X100425000Y-98150000D01*
X96300000Y-105825000D02*
X94275000Y-103800000D01*
D37*
X173482000Y-128016000D02*
X173482000Y-130556000D01*
D34*
X118860000Y-97340000D02*
X120950000Y-95250000D01*
D37*
X190500000Y-116520000D02*
X190500000Y-101520000D01*
D34*
X119975000Y-92750000D02*
X125436000Y-92750000D01*
D37*
X93326000Y-116440000D02*
X101854000Y-124968000D01*
D34*
X154432000Y-84836000D02*
X156210000Y-83058000D01*
X106835000Y-122273000D02*
X104140000Y-124968000D01*
D36*
X92188000Y-108204000D02*
X90424000Y-106440000D01*
D34*
X154940000Y-82042000D02*
X152654000Y-84328000D01*
D35*
X158496000Y-96366000D02*
X157526000Y-97336000D01*
D34*
X156210000Y-78232000D02*
X151892000Y-82550000D01*
X166370000Y-86614000D02*
X166370000Y-121920000D01*
X163174000Y-85344000D02*
X165100000Y-85344000D01*
X119335000Y-117650000D02*
X106835000Y-117650000D01*
D37*
X173482000Y-122428000D02*
X173482000Y-124968000D01*
D34*
X175514000Y-87884000D02*
X169672000Y-82042000D01*
X120950000Y-95250000D02*
X126238000Y-95250000D01*
D37*
X90424000Y-106440000D02*
X90424000Y-116440000D01*
D34*
X130825000Y-86125000D02*
X129200000Y-86125000D01*
X112275000Y-89050000D02*
X112275000Y-83085000D01*
D36*
X105918000Y-83312000D02*
X105918000Y-101346000D01*
D34*
X168402000Y-84074000D02*
X175768000Y-91440000D01*
X126238000Y-95250000D02*
X140208000Y-81280000D01*
X117900000Y-88325000D02*
X114310000Y-88325000D01*
X94275000Y-103800000D02*
X94275000Y-100291000D01*
X114125000Y-91150000D02*
X114125000Y-97955000D01*
X116050000Y-97340000D02*
X118860000Y-97340000D01*
X140208000Y-81280000D02*
X147320000Y-81280000D01*
X110375000Y-94800000D02*
X114075000Y-94800000D01*
X100400000Y-90225000D02*
X94209000Y-90225000D01*
X176784000Y-87884000D02*
X175514000Y-87884000D01*
X156210000Y-83058000D02*
X169164000Y-83058000D01*
D36*
X102870000Y-96520000D02*
X105918000Y-96520000D01*
D34*
X163174000Y-87884000D02*
X162306000Y-87884000D01*
X173736000Y-79756000D02*
X172212000Y-78232000D01*
X149860000Y-93980000D02*
X154432000Y-89408000D01*
D37*
X166878000Y-122428000D02*
X184592000Y-122428000D01*
D34*
X145542000Y-83820000D02*
X145542000Y-89662000D01*
D36*
X100076000Y-108204000D02*
X92188000Y-108204000D01*
X183896000Y-79756000D02*
X183896000Y-103378000D01*
D34*
X156210000Y-90170000D02*
X156210000Y-85598000D01*
X152654000Y-88646000D02*
X149860000Y-91440000D01*
X94275000Y-100291000D02*
X90424000Y-96440000D01*
X116050000Y-114365000D02*
X119335000Y-117650000D01*
X156210000Y-85598000D02*
X157734000Y-84074000D01*
X112575000Y-89350000D02*
X112275000Y-89050000D01*
X116050000Y-99880000D02*
X116050000Y-114365000D01*
D37*
X93326000Y-116440000D02*
X90424000Y-116440000D01*
D34*
X139446000Y-78740000D02*
X147320000Y-78740000D01*
D37*
X143535000Y-124968000D02*
X149098000Y-124968000D01*
D34*
X100675000Y-105825000D02*
X96300000Y-105825000D01*
D37*
X98900000Y-137175000D02*
X119355000Y-137175000D01*
D34*
X90424000Y-91440000D02*
X97134000Y-98150000D01*
X176784000Y-90678000D02*
X176784000Y-96012000D01*
X157734000Y-84074000D02*
X168402000Y-84074000D01*
D35*
X100425000Y-98150000D02*
X100450000Y-98175000D01*
D34*
X125436000Y-92750000D02*
X139446000Y-78740000D01*
D36*
X102870000Y-88392000D02*
X105918000Y-88392000D01*
D37*
X143535000Y-124968000D02*
X104140000Y-124968000D01*
D36*
X102870000Y-80264000D02*
X105918000Y-83312000D01*
D34*
X113100000Y-90125000D02*
X114125000Y-91150000D01*
X146812000Y-82550000D02*
X145542000Y-83820000D01*
X129200000Y-86125000D02*
X125250000Y-90075000D01*
X158496000Y-91694000D02*
X158496000Y-96366000D01*
X151892000Y-82550000D02*
X146812000Y-82550000D01*
D36*
X102870000Y-104394000D02*
X102870000Y-105410000D01*
D37*
X151638000Y-122428000D02*
X166878000Y-122428000D01*
D34*
X169672000Y-82042000D02*
X154940000Y-82042000D01*
X99915000Y-81440000D02*
X90424000Y-81440000D01*
X125250000Y-90075000D02*
X119650000Y-90075000D01*
D36*
X147320000Y-93980000D02*
X143535000Y-97765000D01*
D34*
X100450000Y-81975000D02*
X99915000Y-81440000D01*
X176784000Y-79756000D02*
X173736000Y-79756000D01*
X152654000Y-84328000D02*
X152654000Y-88646000D01*
D36*
X102870000Y-105410000D02*
X100076000Y-108204000D01*
D34*
X106835000Y-117650000D02*
X106835000Y-122273000D01*
X172212000Y-78232000D02*
X156210000Y-78232000D01*
D36*
X105918000Y-101346000D02*
X102870000Y-104394000D01*
D34*
X175768000Y-102870000D02*
X176784000Y-103886000D01*
D36*
X143535000Y-97765000D02*
X143535000Y-124968000D01*
D34*
X117925000Y-94800000D02*
X119975000Y-92750000D01*
D37*
X155702000Y-128016000D02*
X155702000Y-130556000D01*
D34*
X114125000Y-97955000D02*
X116050000Y-99880000D01*
D37*
X155702000Y-122428000D02*
X155702000Y-124968000D01*
D34*
X119650000Y-90075000D02*
X117900000Y-88325000D01*
X116050000Y-94800000D02*
X117925000Y-94800000D01*
D37*
X104140000Y-124968000D02*
X101854000Y-124968000D01*
D34*
X149860000Y-96520000D02*
X156210000Y-90170000D01*
X94209000Y-90225000D02*
X90424000Y-86440000D01*
D37*
X149098000Y-124968000D02*
X151638000Y-122428000D01*
D35*
X166370000Y-121920000D02*
X166878000Y-122428000D01*
D34*
X154432000Y-89408000D02*
X154432000Y-84836000D01*
D35*
X114075000Y-94800000D02*
X114125000Y-94850000D01*
D34*
X169164000Y-83058000D02*
X176784000Y-90678000D01*
D36*
X183976000Y-101520000D02*
X190500000Y-101520000D01*
D34*
X165100000Y-85344000D02*
X166370000Y-86614000D01*
D37*
X184592000Y-122428000D02*
X190500000Y-116520000D01*
M02*
