%TF.GenerationSoftware,KiCad,Pcbnew,7.0.5-4d25ed1034~172~ubuntu22.04.1*%
%TF.CreationDate,2023-07-02T14:21:01+02:00*%
%TF.ProjectId,ESP32_mini_8Port_WLED,45535033-325f-46d6-996e-695f38506f72,rev?*%
%TF.SameCoordinates,Original*%
%TF.FileFunction,Drillmap*%
%TF.FilePolarity,Positive*%
%FSLAX45Y45*%
G04 Gerber Fmt 4.5, Leading zero omitted, Abs format (unit mm)*
G04 Created by KiCad (PCBNEW 7.0.5-4d25ed1034~172~ubuntu22.04.1) date 2023-07-02 14:21:01*
%MOMM*%
%LPD*%
G01*
G04 APERTURE LIST*
%ADD10C,0.100000*%
%ADD11C,0.200000*%
G04 APERTURE END LIST*
D10*
X7518400Y-7747000D02*
X20523200Y-7747000D01*
X20523200Y-13944600D01*
X7518400Y-13944600D01*
X7518400Y-7747000D01*
D11*
X7774177Y-14261084D02*
X7774177Y-14061084D01*
X7774177Y-14061084D02*
X7821796Y-14061084D01*
X7821796Y-14061084D02*
X7850367Y-14070608D01*
X7850367Y-14070608D02*
X7869415Y-14089655D01*
X7869415Y-14089655D02*
X7878939Y-14108703D01*
X7878939Y-14108703D02*
X7888462Y-14146798D01*
X7888462Y-14146798D02*
X7888462Y-14175369D01*
X7888462Y-14175369D02*
X7878939Y-14213465D01*
X7878939Y-14213465D02*
X7869415Y-14232512D01*
X7869415Y-14232512D02*
X7850367Y-14251560D01*
X7850367Y-14251560D02*
X7821796Y-14261084D01*
X7821796Y-14261084D02*
X7774177Y-14261084D01*
X7974177Y-14261084D02*
X7974177Y-14127750D01*
X7974177Y-14165846D02*
X7983701Y-14146798D01*
X7983701Y-14146798D02*
X7993224Y-14137274D01*
X7993224Y-14137274D02*
X8012272Y-14127750D01*
X8012272Y-14127750D02*
X8031320Y-14127750D01*
X8097986Y-14261084D02*
X8097986Y-14127750D01*
X8097986Y-14061084D02*
X8088462Y-14070608D01*
X8088462Y-14070608D02*
X8097986Y-14080131D01*
X8097986Y-14080131D02*
X8107510Y-14070608D01*
X8107510Y-14070608D02*
X8097986Y-14061084D01*
X8097986Y-14061084D02*
X8097986Y-14080131D01*
X8221796Y-14261084D02*
X8202748Y-14251560D01*
X8202748Y-14251560D02*
X8193224Y-14232512D01*
X8193224Y-14232512D02*
X8193224Y-14061084D01*
X8326558Y-14261084D02*
X8307510Y-14251560D01*
X8307510Y-14251560D02*
X8297986Y-14232512D01*
X8297986Y-14232512D02*
X8297986Y-14061084D01*
X8555129Y-14261084D02*
X8555129Y-14061084D01*
X8555129Y-14061084D02*
X8621796Y-14203941D01*
X8621796Y-14203941D02*
X8688463Y-14061084D01*
X8688463Y-14061084D02*
X8688463Y-14261084D01*
X8869415Y-14261084D02*
X8869415Y-14156322D01*
X8869415Y-14156322D02*
X8859891Y-14137274D01*
X8859891Y-14137274D02*
X8840844Y-14127750D01*
X8840844Y-14127750D02*
X8802748Y-14127750D01*
X8802748Y-14127750D02*
X8783701Y-14137274D01*
X8869415Y-14251560D02*
X8850367Y-14261084D01*
X8850367Y-14261084D02*
X8802748Y-14261084D01*
X8802748Y-14261084D02*
X8783701Y-14251560D01*
X8783701Y-14251560D02*
X8774177Y-14232512D01*
X8774177Y-14232512D02*
X8774177Y-14213465D01*
X8774177Y-14213465D02*
X8783701Y-14194417D01*
X8783701Y-14194417D02*
X8802748Y-14184893D01*
X8802748Y-14184893D02*
X8850367Y-14184893D01*
X8850367Y-14184893D02*
X8869415Y-14175369D01*
X8964653Y-14127750D02*
X8964653Y-14327750D01*
X8964653Y-14137274D02*
X8983701Y-14127750D01*
X8983701Y-14127750D02*
X9021796Y-14127750D01*
X9021796Y-14127750D02*
X9040844Y-14137274D01*
X9040844Y-14137274D02*
X9050367Y-14146798D01*
X9050367Y-14146798D02*
X9059891Y-14165846D01*
X9059891Y-14165846D02*
X9059891Y-14222988D01*
X9059891Y-14222988D02*
X9050367Y-14242036D01*
X9050367Y-14242036D02*
X9040844Y-14251560D01*
X9040844Y-14251560D02*
X9021796Y-14261084D01*
X9021796Y-14261084D02*
X8983701Y-14261084D01*
X8983701Y-14261084D02*
X8964653Y-14251560D01*
X9145605Y-14242036D02*
X9155129Y-14251560D01*
X9155129Y-14251560D02*
X9145605Y-14261084D01*
X9145605Y-14261084D02*
X9136082Y-14251560D01*
X9136082Y-14251560D02*
X9145605Y-14242036D01*
X9145605Y-14242036D02*
X9145605Y-14261084D01*
X9145605Y-14137274D02*
X9155129Y-14146798D01*
X9155129Y-14146798D02*
X9145605Y-14156322D01*
X9145605Y-14156322D02*
X9136082Y-14146798D01*
X9136082Y-14146798D02*
X9145605Y-14137274D01*
X9145605Y-14137274D02*
X9145605Y-14156322D01*
M02*
