M48
; DRILL file {KiCad 7.0.5-4d25ed1034~172~ubuntu22.04.1} date Fr 02 Jun 2023 18:09:43 CEST
; FORMAT={-:-/ absolute / metric / decimal}
; #@! TF.CreationDate,2023-06-02T18:09:43+02:00
; #@! TF.GenerationSoftware,Kicad,Pcbnew,7.0.5-4d25ed1034~172~ubuntu22.04.1
; #@! TF.FileFunction,Plated,1,2,PTH
FMAT,2
METRIC
; #@! TA.AperFunction,Plated,PTH,ViaDrill
T1C0.300
; #@! TA.AperFunction,Plated,PTH,ViaDrill
T2C0.500
; #@! TA.AperFunction,Plated,PTH,ComponentDrill
T3C0.500
; #@! TA.AperFunction,Plated,PTH,ComponentDrill
T4C0.750
; #@! TA.AperFunction,Plated,PTH,ComponentDrill
T5C0.800
; #@! TA.AperFunction,Plated,PTH,ComponentDrill
T6C0.900
; #@! TA.AperFunction,Plated,PTH,ComponentDrill
T7C1.000
; #@! TA.AperFunction,Plated,PTH,ComponentDrill
T8C1.100
; #@! TA.AperFunction,Plated,PTH,ComponentDrill
T9C1.200
; #@! TA.AperFunction,Plated,PTH,ComponentDrill
T10C1.300
; #@! TA.AperFunction,Plated,PTH,ComponentDrill
T11C3.500
%
G90
G05
T1
X100.4Y-90.225
X100.45Y-81.975
X100.45Y-98.175
X100.675Y-105.825
X102.87Y-80.264
X102.87Y-88.392
X102.87Y-96.52
X102.87Y-104.394
X110.45Y-114.43
X112.575Y-89.35
X113.1Y-90.125
X113.54Y-112.62
X130.825Y-86.125
X176.784Y-79.756
X176.784Y-87.884
X176.784Y-96.012
X176.784Y-103.886
X183.388Y-103.886
X183.896Y-79.756
X183.896Y-87.884
X183.896Y-95.758
T2
X98.9Y-137.175
X104.14Y-124.968
X119.36Y-137.17
T3
X77.385Y-81.28
X77.385Y-135.297
X78.154Y-79.424
X78.154Y-83.136
X78.154Y-133.441
X78.154Y-137.153
X80.01Y-78.655
X80.01Y-83.905
X80.01Y-132.672
X80.01Y-137.922
X81.866Y-79.424
X81.866Y-83.136
X81.866Y-133.441
X81.866Y-137.153
X82.635Y-81.28
X82.635Y-135.297
X198.035Y-81.28
X198.211Y-135.304
X198.804Y-79.424
X198.804Y-83.136
X198.98Y-133.448
X198.98Y-137.16
X200.66Y-78.655
X200.66Y-83.905
X200.836Y-132.679
X200.836Y-137.929
X202.516Y-79.424
X202.516Y-83.136
X202.692Y-133.448
X202.692Y-137.16
X203.285Y-81.28
X203.461Y-135.304
T4
X163.576Y-85.344
X163.576Y-86.614
X163.576Y-87.884
T5
X121.92Y-78.74
X121.92Y-81.28
X121.92Y-83.82
X121.92Y-86.36
X121.92Y-88.9
X121.92Y-91.44
X121.92Y-93.98
X121.92Y-96.52
X121.92Y-99.06
X121.92Y-101.6
X124.46Y-78.74
X124.46Y-81.28
X124.46Y-83.82
X124.46Y-86.36
X124.46Y-88.9
X124.46Y-91.44
X124.46Y-93.98
X124.46Y-96.52
X124.46Y-99.06
X124.46Y-101.6
X147.32Y-78.74
X147.32Y-81.28
X147.32Y-83.82
X147.32Y-86.36
X147.32Y-88.9
X147.32Y-91.44
X147.32Y-93.98
X147.32Y-96.52
X147.32Y-99.06
X147.32Y-101.6
X149.86Y-78.74
X149.86Y-81.28
X149.86Y-83.82
X149.86Y-86.36
X149.86Y-88.9
X149.86Y-91.44
X149.86Y-93.98
X149.86Y-96.52
X149.86Y-99.06
X149.86Y-101.6
X155.702Y-124.714
X155.702Y-128.214
X156.718Y-80.518
X169.418Y-80.518
X173.482Y-124.714
X173.482Y-128.214
T6
X109.728Y-83.303
X112.268Y-83.303
X114.808Y-83.303
T7
X110.37Y-92.35
X110.37Y-94.89
X110.37Y-97.43
X110.37Y-99.97
X110.37Y-102.51
X116.103Y-92.212
X116.103Y-94.752
X116.103Y-97.292
X116.103Y-99.832
X143.764Y-124.968
X143.764Y-127.508
X146.304Y-112.268
X148.844Y-112.268
X157.876Y-97.478
X169.876Y-97.478
T8
X90.424Y-81.586
X90.424Y-86.586
X90.424Y-91.586
X90.424Y-96.586
X90.424Y-101.586
X90.424Y-106.586
X90.424Y-111.586
X90.424Y-116.586
X90.424Y-121.586
X90.424Y-126.586
X90.424Y-131.586
X90.424Y-136.586
X158.496Y-91.948
X168.656Y-91.948
X190.5Y-81.68
X190.5Y-86.68
X190.5Y-91.68
X190.5Y-96.68
X190.5Y-101.68
X190.5Y-106.68
X190.5Y-111.68
X190.5Y-116.68
X190.5Y-121.68
X190.5Y-126.68
X190.5Y-131.68
X190.5Y-136.68
T9
X155.956Y-122.428
X155.956Y-129.928
X173.482Y-122.428
X173.482Y-129.928
T10
X107.024Y-112.562
X107.024Y-117.562
X119.524Y-112.562
X119.524Y-117.562
X157.876Y-109.678
X163.926Y-95.528
X169.926Y-109.728
T11
X80.01Y-81.28
X80.01Y-81.28
X80.01Y-135.297
X80.01Y-135.297
X200.66Y-81.28
X200.66Y-81.28
X200.836Y-135.304
X200.836Y-135.304
T0
M30
